<?xml version="1.0" encoding="utf-8" standalone="no"?>
<!DOCTYPE svg PUBLIC "-//W3C//DTD SVG 1.1//EN"
  "http://www.w3.org/Graphics/SVG/1.1/DTD/svg11.dtd">
<!-- Created with matplotlib (http://matplotlib.org/) -->
<svg height="576pt" version="1.1" viewBox="0 0 864 576" width="864pt" xmlns="http://www.w3.org/2000/svg" xmlns:xlink="http://www.w3.org/1999/xlink">
 <defs>
  <style type="text/css">
*{stroke-linecap:butt;stroke-linejoin:round;}
  </style>
 </defs>
 <g id="figure_1">
  <g id="patch_1">
   <path d="M 0 576 
L 864 576 
L 864 0 
L 0 0 
z
" style="fill:#ffffff;"/>
  </g>
  <g id="axes_1">
   <g id="matplotlib.axis_1">
    <g id="xtick_1">
     <g id="line2d_1">
      <defs>
       <path d="M 0 0 
L 0 3.5 
" id="maef58cff6c" style="stroke:#000000;stroke-width:0.8;"/>
      </defs>
      <g>
       <use style="stroke:#000000;stroke-width:0.8;" x="138.436364" xlink:href="#maef58cff6c" y="504"/>
      </g>
     </g>
     <g id="text_1">
      <!-- 0.000 -->
      <defs>
       <path d="M 31.78125 66.40625 
Q 24.171875 66.40625 20.328125 58.90625 
Q 16.5 51.421875 16.5 36.375 
Q 16.5 21.390625 20.328125 13.890625 
Q 24.171875 6.390625 31.78125 6.390625 
Q 39.453125 6.390625 43.28125 13.890625 
Q 47.125 21.390625 47.125 36.375 
Q 47.125 51.421875 43.28125 58.90625 
Q 39.453125 66.40625 31.78125 66.40625 
M 31.78125 74.21875 
Q 44.046875 74.21875 50.515625 64.515625 
Q 56.984375 54.828125 56.984375 36.375 
Q 56.984375 17.96875 50.515625 8.265625 
Q 44.046875 -1.421875 31.78125 -1.421875 
Q 19.53125 -1.421875 13.0625 8.265625 
Q 6.59375 17.96875 6.59375 36.375 
Q 6.59375 54.828125 13.0625 64.515625 
Q 19.53125 74.21875 31.78125 74.21875 
" id="DejaVuSans-30"/>
       <path d="M 10.6875 12.40625 
L 21 12.40625 
L 21 0 
L 10.6875 0 
z
" id="DejaVuSans-2e"/>
      </defs>
      <g transform="translate(124.122301 518.598438)scale(0.1 -0.1)">
       <use xlink:href="#DejaVuSans-30"/>
       <use x="63.623047" xlink:href="#DejaVuSans-2e"/>
       <use x="95.410156" xlink:href="#DejaVuSans-30"/>
       <use x="159.033203" xlink:href="#DejaVuSans-30"/>
       <use x="222.65625" xlink:href="#DejaVuSans-30"/>
      </g>
     </g>
    </g>
    <g id="xtick_2">
     <g id="line2d_2">
      <g>
       <use style="stroke:#000000;stroke-width:0.8;" x="246.031044" xlink:href="#maef58cff6c" y="504"/>
      </g>
     </g>
     <g id="text_2">
      <!-- 0.002 -->
      <defs>
       <path d="M 19.1875 8.296875 
L 53.609375 8.296875 
L 53.609375 0 
L 7.328125 0 
L 7.328125 8.296875 
Q 12.9375 14.109375 22.625 23.890625 
Q 32.328125 33.6875 34.8125 36.53125 
Q 39.546875 41.84375 41.421875 45.53125 
Q 43.3125 49.21875 43.3125 52.78125 
Q 43.3125 58.59375 39.234375 62.25 
Q 35.15625 65.921875 28.609375 65.921875 
Q 23.96875 65.921875 18.8125 64.3125 
Q 13.671875 62.703125 7.8125 59.421875 
L 7.8125 69.390625 
Q 13.765625 71.78125 18.9375 73 
Q 24.125 74.21875 28.421875 74.21875 
Q 39.75 74.21875 46.484375 68.546875 
Q 53.21875 62.890625 53.21875 53.421875 
Q 53.21875 48.921875 51.53125 44.890625 
Q 49.859375 40.875 45.40625 35.40625 
Q 44.1875 33.984375 37.640625 27.21875 
Q 31.109375 20.453125 19.1875 8.296875 
" id="DejaVuSans-32"/>
      </defs>
      <g transform="translate(231.716981 518.598438)scale(0.1 -0.1)">
       <use xlink:href="#DejaVuSans-30"/>
       <use x="63.623047" xlink:href="#DejaVuSans-2e"/>
       <use x="95.410156" xlink:href="#DejaVuSans-30"/>
       <use x="159.033203" xlink:href="#DejaVuSans-30"/>
       <use x="222.65625" xlink:href="#DejaVuSans-32"/>
      </g>
     </g>
    </g>
    <g id="xtick_3">
     <g id="line2d_3">
      <g>
       <use style="stroke:#000000;stroke-width:0.8;" x="353.625724" xlink:href="#maef58cff6c" y="504"/>
      </g>
     </g>
     <g id="text_3">
      <!-- 0.004 -->
      <defs>
       <path d="M 37.796875 64.3125 
L 12.890625 25.390625 
L 37.796875 25.390625 
z
M 35.203125 72.90625 
L 47.609375 72.90625 
L 47.609375 25.390625 
L 58.015625 25.390625 
L 58.015625 17.1875 
L 47.609375 17.1875 
L 47.609375 0 
L 37.796875 0 
L 37.796875 17.1875 
L 4.890625 17.1875 
L 4.890625 26.703125 
z
" id="DejaVuSans-34"/>
      </defs>
      <g transform="translate(339.311662 518.598438)scale(0.1 -0.1)">
       <use xlink:href="#DejaVuSans-30"/>
       <use x="63.623047" xlink:href="#DejaVuSans-2e"/>
       <use x="95.410156" xlink:href="#DejaVuSans-30"/>
       <use x="159.033203" xlink:href="#DejaVuSans-30"/>
       <use x="222.65625" xlink:href="#DejaVuSans-34"/>
      </g>
     </g>
    </g>
    <g id="xtick_4">
     <g id="line2d_4">
      <g>
       <use style="stroke:#000000;stroke-width:0.8;" x="461.220404" xlink:href="#maef58cff6c" y="504"/>
      </g>
     </g>
     <g id="text_4">
      <!-- 0.006 -->
      <defs>
       <path d="M 33.015625 40.375 
Q 26.375 40.375 22.484375 35.828125 
Q 18.609375 31.296875 18.609375 23.390625 
Q 18.609375 15.53125 22.484375 10.953125 
Q 26.375 6.390625 33.015625 6.390625 
Q 39.65625 6.390625 43.53125 10.953125 
Q 47.40625 15.53125 47.40625 23.390625 
Q 47.40625 31.296875 43.53125 35.828125 
Q 39.65625 40.375 33.015625 40.375 
M 52.59375 71.296875 
L 52.59375 62.3125 
Q 48.875 64.0625 45.09375 64.984375 
Q 41.3125 65.921875 37.59375 65.921875 
Q 27.828125 65.921875 22.671875 59.328125 
Q 17.53125 52.734375 16.796875 39.40625 
Q 19.671875 43.65625 24.015625 45.921875 
Q 28.375 48.1875 33.59375 48.1875 
Q 44.578125 48.1875 50.953125 41.515625 
Q 57.328125 34.859375 57.328125 23.390625 
Q 57.328125 12.15625 50.6875 5.359375 
Q 44.046875 -1.421875 33.015625 -1.421875 
Q 20.359375 -1.421875 13.671875 8.265625 
Q 6.984375 17.96875 6.984375 36.375 
Q 6.984375 53.65625 15.1875 63.9375 
Q 23.390625 74.21875 37.203125 74.21875 
Q 40.921875 74.21875 44.703125 73.484375 
Q 48.484375 72.75 52.59375 71.296875 
" id="DejaVuSans-36"/>
      </defs>
      <g transform="translate(446.906342 518.598438)scale(0.1 -0.1)">
       <use xlink:href="#DejaVuSans-30"/>
       <use x="63.623047" xlink:href="#DejaVuSans-2e"/>
       <use x="95.410156" xlink:href="#DejaVuSans-30"/>
       <use x="159.033203" xlink:href="#DejaVuSans-30"/>
       <use x="222.65625" xlink:href="#DejaVuSans-36"/>
      </g>
     </g>
    </g>
    <g id="xtick_5">
     <g id="line2d_5">
      <g>
       <use style="stroke:#000000;stroke-width:0.8;" x="568.815085" xlink:href="#maef58cff6c" y="504"/>
      </g>
     </g>
     <g id="text_5">
      <!-- 0.008 -->
      <defs>
       <path d="M 31.78125 34.625 
Q 24.75 34.625 20.71875 30.859375 
Q 16.703125 27.09375 16.703125 20.515625 
Q 16.703125 13.921875 20.71875 10.15625 
Q 24.75 6.390625 31.78125 6.390625 
Q 38.8125 6.390625 42.859375 10.171875 
Q 46.921875 13.96875 46.921875 20.515625 
Q 46.921875 27.09375 42.890625 30.859375 
Q 38.875 34.625 31.78125 34.625 
M 21.921875 38.8125 
Q 15.578125 40.375 12.03125 44.71875 
Q 8.5 49.078125 8.5 55.328125 
Q 8.5 64.0625 14.71875 69.140625 
Q 20.953125 74.21875 31.78125 74.21875 
Q 42.671875 74.21875 48.875 69.140625 
Q 55.078125 64.0625 55.078125 55.328125 
Q 55.078125 49.078125 51.53125 44.71875 
Q 48 40.375 41.703125 38.8125 
Q 48.828125 37.15625 52.796875 32.3125 
Q 56.78125 27.484375 56.78125 20.515625 
Q 56.78125 9.90625 50.3125 4.234375 
Q 43.84375 -1.421875 31.78125 -1.421875 
Q 19.734375 -1.421875 13.25 4.234375 
Q 6.78125 9.90625 6.78125 20.515625 
Q 6.78125 27.484375 10.78125 32.3125 
Q 14.796875 37.15625 21.921875 38.8125 
M 18.3125 54.390625 
Q 18.3125 48.734375 21.84375 45.5625 
Q 25.390625 42.390625 31.78125 42.390625 
Q 38.140625 42.390625 41.71875 45.5625 
Q 45.3125 48.734375 45.3125 54.390625 
Q 45.3125 60.0625 41.71875 63.234375 
Q 38.140625 66.40625 31.78125 66.40625 
Q 25.390625 66.40625 21.84375 63.234375 
Q 18.3125 60.0625 18.3125 54.390625 
" id="DejaVuSans-38"/>
      </defs>
      <g transform="translate(554.501022 518.598438)scale(0.1 -0.1)">
       <use xlink:href="#DejaVuSans-30"/>
       <use x="63.623047" xlink:href="#DejaVuSans-2e"/>
       <use x="95.410156" xlink:href="#DejaVuSans-30"/>
       <use x="159.033203" xlink:href="#DejaVuSans-30"/>
       <use x="222.65625" xlink:href="#DejaVuSans-38"/>
      </g>
     </g>
    </g>
    <g id="xtick_6">
     <g id="line2d_6">
      <g>
       <use style="stroke:#000000;stroke-width:0.8;" x="676.409765" xlink:href="#maef58cff6c" y="504"/>
      </g>
     </g>
     <g id="text_6">
      <!-- 0.010 -->
      <defs>
       <path d="M 12.40625 8.296875 
L 28.515625 8.296875 
L 28.515625 63.921875 
L 10.984375 60.40625 
L 10.984375 69.390625 
L 28.421875 72.90625 
L 38.28125 72.90625 
L 38.28125 8.296875 
L 54.390625 8.296875 
L 54.390625 0 
L 12.40625 0 
z
" id="DejaVuSans-31"/>
      </defs>
      <g transform="translate(662.095702 518.598438)scale(0.1 -0.1)">
       <use xlink:href="#DejaVuSans-30"/>
       <use x="63.623047" xlink:href="#DejaVuSans-2e"/>
       <use x="95.410156" xlink:href="#DejaVuSans-30"/>
       <use x="159.033203" xlink:href="#DejaVuSans-31"/>
       <use x="222.65625" xlink:href="#DejaVuSans-30"/>
      </g>
     </g>
    </g>
   </g>
   <g id="matplotlib.axis_2">
    <g id="ytick_1">
     <g id="line2d_7">
      <defs>
       <path d="M 0 0 
L -3.5 0 
" id="m8ed565555c" style="stroke:#000000;stroke-width:0.8;"/>
      </defs>
      <g>
       <use style="stroke:#000000;stroke-width:0.8;" x="108" xlink:href="#m8ed565555c" y="437.343463"/>
      </g>
     </g>
     <g id="text_7">
      <!-- −0.2 -->
      <defs>
       <path d="M 10.59375 35.5 
L 73.1875 35.5 
L 73.1875 27.203125 
L 10.59375 27.203125 
z
" id="DejaVuSans-2212"/>
      </defs>
      <g transform="translate(76.717187 441.142682)scale(0.1 -0.1)">
       <use xlink:href="#DejaVuSans-2212"/>
       <use x="83.789062" xlink:href="#DejaVuSans-30"/>
       <use x="147.412109" xlink:href="#DejaVuSans-2e"/>
       <use x="179.199219" xlink:href="#DejaVuSans-32"/>
      </g>
     </g>
    </g>
    <g id="ytick_2">
     <g id="line2d_8">
      <g>
       <use style="stroke:#000000;stroke-width:0.8;" x="108" xlink:href="#m8ed565555c" y="364.149212"/>
      </g>
     </g>
     <g id="text_8">
      <!-- −0.1 -->
      <g transform="translate(76.717187 367.948431)scale(0.1 -0.1)">
       <use xlink:href="#DejaVuSans-2212"/>
       <use x="83.789062" xlink:href="#DejaVuSans-30"/>
       <use x="147.412109" xlink:href="#DejaVuSans-2e"/>
       <use x="179.199219" xlink:href="#DejaVuSans-31"/>
      </g>
     </g>
    </g>
    <g id="ytick_3">
     <g id="line2d_9">
      <g>
       <use style="stroke:#000000;stroke-width:0.8;" x="108" xlink:href="#m8ed565555c" y="290.954961"/>
      </g>
     </g>
     <g id="text_9">
      <!-- 0.0 -->
      <g transform="translate(85.096875 294.75418)scale(0.1 -0.1)">
       <use xlink:href="#DejaVuSans-30"/>
       <use x="63.623047" xlink:href="#DejaVuSans-2e"/>
       <use x="95.410156" xlink:href="#DejaVuSans-30"/>
      </g>
     </g>
    </g>
    <g id="ytick_4">
     <g id="line2d_10">
      <g>
       <use style="stroke:#000000;stroke-width:0.8;" x="108" xlink:href="#m8ed565555c" y="217.76071"/>
      </g>
     </g>
     <g id="text_10">
      <!-- 0.1 -->
      <g transform="translate(85.096875 221.559929)scale(0.1 -0.1)">
       <use xlink:href="#DejaVuSans-30"/>
       <use x="63.623047" xlink:href="#DejaVuSans-2e"/>
       <use x="95.410156" xlink:href="#DejaVuSans-31"/>
      </g>
     </g>
    </g>
    <g id="ytick_5">
     <g id="line2d_11">
      <g>
       <use style="stroke:#000000;stroke-width:0.8;" x="108" xlink:href="#m8ed565555c" y="144.566459"/>
      </g>
     </g>
     <g id="text_11">
      <!-- 0.2 -->
      <g transform="translate(85.096875 148.365678)scale(0.1 -0.1)">
       <use xlink:href="#DejaVuSans-30"/>
       <use x="63.623047" xlink:href="#DejaVuSans-2e"/>
       <use x="95.410156" xlink:href="#DejaVuSans-32"/>
      </g>
     </g>
    </g>
    <g id="ytick_6">
     <g id="line2d_12">
      <g>
       <use style="stroke:#000000;stroke-width:0.8;" x="108" xlink:href="#m8ed565555c" y="71.372208"/>
      </g>
     </g>
     <g id="text_12">
      <!-- 0.3 -->
      <defs>
       <path d="M 40.578125 39.3125 
Q 47.65625 37.796875 51.625 33 
Q 55.609375 28.21875 55.609375 21.1875 
Q 55.609375 10.40625 48.1875 4.484375 
Q 40.765625 -1.421875 27.09375 -1.421875 
Q 22.515625 -1.421875 17.65625 -0.515625 
Q 12.796875 0.390625 7.625 2.203125 
L 7.625 11.71875 
Q 11.71875 9.328125 16.59375 8.109375 
Q 21.484375 6.890625 26.8125 6.890625 
Q 36.078125 6.890625 40.9375 10.546875 
Q 45.796875 14.203125 45.796875 21.1875 
Q 45.796875 27.640625 41.28125 31.265625 
Q 36.765625 34.90625 28.71875 34.90625 
L 20.21875 34.90625 
L 20.21875 43.015625 
L 29.109375 43.015625 
Q 36.375 43.015625 40.234375 45.921875 
Q 44.09375 48.828125 44.09375 54.296875 
Q 44.09375 59.90625 40.109375 62.90625 
Q 36.140625 65.921875 28.71875 65.921875 
Q 24.65625 65.921875 20.015625 65.03125 
Q 15.375 64.15625 9.8125 62.3125 
L 9.8125 71.09375 
Q 15.4375 72.65625 20.34375 73.4375 
Q 25.25 74.21875 29.59375 74.21875 
Q 40.828125 74.21875 47.359375 69.109375 
Q 53.90625 64.015625 53.90625 55.328125 
Q 53.90625 49.265625 50.4375 45.09375 
Q 46.96875 40.921875 40.578125 39.3125 
" id="DejaVuSans-33"/>
      </defs>
      <g transform="translate(85.096875 75.171427)scale(0.1 -0.1)">
       <use xlink:href="#DejaVuSans-30"/>
       <use x="63.623047" xlink:href="#DejaVuSans-2e"/>
       <use x="95.410156" xlink:href="#DejaVuSans-33"/>
      </g>
     </g>
    </g>
   </g>
   <g id="line2d_13">
    <path clip-path="url(#p496166c0d4)" d="M 138.436364 379.189249 
L 138.436364 383.143039 
L 139.656258 383.143039 
L 139.656258 385.175778 
L 140.876152 385.175778 
L 140.876152 386.761761 
L 142.096047 386.761761 
L 142.096047 387.498909 
L 143.315941 387.498909 
L 143.315941 385.644872 
L 144.535835 385.644872 
L 144.535835 381.110299 
L 145.75573 381.110299 
L 145.75573 377.75963 
L 146.975624 377.75963 
L 146.975624 376.251829 
L 148.195518 376.251829 
L 148.195518 374.677015 
L 149.415413 374.677015 
L 149.415413 373.459605 
L 150.635307 373.459605 
L 150.635307 373.046356 
L 151.855201 373.046356 
L 151.855201 371.549723 
L 153.075096 371.549723 
L 153.075096 368.589966 
L 154.29499 368.589966 
L 154.29499 364.423967 
L 155.514884 364.423967 
L 155.514884 357.555095 
L 156.734779 357.555095 
L 156.734779 349.546996 
L 157.954673 349.546996 
L 157.954673 343.136049 
L 159.174567 343.136049 
L 159.174567 337.909005 
L 160.394462 337.909005 
L 160.394462 332.849494 
L 161.614356 332.849494 
L 161.614356 329.588177 
L 162.83425 329.588177 
L 162.83425 328.728171 
L 164.054145 328.728171 
L 164.054145 327.577775 
L 165.274039 327.577775 
L 165.274039 326.248676 
L 166.493933 326.248676 
L 166.493933 325.008929 
L 167.713828 325.008929 
L 167.713828 322.529433 
L 168.933722 322.529433 
L 168.933722 318.955386 
L 170.153616 318.955386 
L 170.153616 314.119254 
L 171.373511 314.119254 
L 171.373511 308.79169 
L 172.593405 308.79169 
L 172.593405 303.899713 
L 173.813299 303.899713 
L 173.813299 299.767221 
L 175.033194 299.767221 
L 175.033194 296.483565 
L 176.253088 296.483565 
L 176.253088 294.91992 
L 177.472982 294.91992 
L 177.472982 294.093421 
L 178.692877 294.093421 
L 178.692877 293.345105 
L 179.912771 293.345105 
L 179.912771 292.462762 
L 181.132665 292.462762 
L 181.132665 290.686908 
L 182.35256 290.686908 
L 182.35256 287.057016 
L 183.572454 287.057016 
L 183.572454 283.661671 
L 184.792348 283.661671 
L 184.792348 281.863479 
L 186.012243 281.863479 
L 186.012243 280.601393 
L 187.232137 280.601393 
L 187.232137 278.579823 
L 188.452031 278.579823 
L 188.452031 277.39592 
L 189.671926 277.39592 
L 189.671926 276.357212 
L 190.89182 276.357212 
L 190.89182 274.994607 
L 192.111714 274.994607 
L 192.111714 274.034082 
L 193.331609 274.034082 
L 193.331609 274.4585 
L 194.551503 274.4585 
L 194.551503 273.732522 
L 195.771397 273.732522 
L 195.771397 272.079525 
L 196.991292 272.079525 
L 196.991292 271.744458 
L 198.211186 271.744458 
L 198.211186 271.487573 
L 199.43108 271.487573 
L 199.43108 270.906791 
L 200.650975 270.906791 
L 200.650975 271.766796 
L 201.870869 271.766796 
L 201.870869 272.783165 
L 203.090763 272.783165 
L 203.090763 271.856147 
L 204.310658 271.856147 
L 204.310658 269.398989 
L 205.530552 269.398989 
L 205.530552 267.098197 
L 206.750446 267.098197 
L 206.750446 263.781034 
L 207.970341 263.781034 
L 207.970341 260.017116 
L 209.190235 260.017116 
L 209.190235 257.046189 
L 210.410129 257.046189 
L 210.410129 254.589032 
L 211.630024 254.589032 
L 211.630024 251.964341 
L 212.849918 251.964341 
L 212.849918 249.585366 
L 214.069812 249.585366 
L 214.069812 247.295742 
L 215.289707 247.295742 
L 215.289707 245.955474 
L 216.509601 245.955474 
L 216.509601 245.341185 
L 217.729495 245.341185 
L 217.729495 245.564563 
L 218.94939 245.564563 
L 218.94939 244.302477 
L 220.169284 244.302477 
L 220.169284 241.420902 
L 221.389178 241.420902 
L 221.389178 236.819316 
L 222.609073 236.819316 
L 222.609073 232.418771 
L 223.828967 232.418771 
L 223.828967 228.956413 
L 225.048861 228.956413 
L 225.048861 225.773277 
L 226.268756 225.773277 
L 226.268756 222.29975 
L 227.48865 222.29975 
L 227.48865 219.094276 
L 228.708544 219.094276 
L 228.708544 215.486723 
L 229.928439 215.486723 
L 229.928439 210.795786 
L 231.148333 210.795786 
L 231.148333 205.937315 
L 232.368227 205.937315 
L 232.368227 200.777285 
L 233.588122 200.777285 
L 233.588122 194.857769 
L 234.808016 194.857769 
L 234.808016 188.446822 
L 236.02791 188.446822 
L 236.02791 182.114058 
L 237.247805 182.114058 
L 237.247805 174.965964 
L 238.467699 174.965964 
L 238.467699 167.616829 
L 239.687593 167.616829 
L 239.687593 161.641469 
L 240.907488 161.641469 
L 240.907488 157.27443 
L 242.127382 157.27443 
L 242.127382 154.169477 
L 243.347276 154.169477 
L 243.347276 152.605831 
L 244.567171 152.605831 
L 244.567171 151.946866 
L 245.787065 151.946866 
L 245.787065 150.606599 
L 247.006959 150.606599 
L 247.006959 148.015415 
L 248.226854 148.015415 
L 248.226854 146.150209 
L 249.446748 146.150209 
L 249.446748 145.904493 
L 250.666642 145.904493 
L 250.666642 146.194884 
L 251.886537 146.194884 
L 251.886537 147.568659 
L 253.106431 147.568659 
L 253.106431 149.523216 
L 254.326325 149.523216 
L 254.326325 150.372052 
L 255.54622 150.372052 
L 255.54622 150.036985 
L 256.766114 150.036985 
L 256.766114 150.59543 
L 257.986008 150.59543 
L 257.986008 150.092829 
L 259.205903 150.092829 
L 259.205903 146.920863 
L 260.425797 146.920863 
L 260.425797 142.810708 
L 261.645691 142.810708 
L 261.645691 138.008083 
L 262.865586 138.008083 
L 262.865586 132.144412 
L 264.08548 132.144412 
L 264.08548 125.923336 
L 265.305374 125.923336 
L 265.305374 119.925638 
L 266.525269 119.925638 
L 266.525269 113.860927 
L 267.745163 113.860927 
L 267.745163 107.170757 
L 268.965057 107.170757 
L 268.965057 100.011494 
L 270.184952 100.011494 
L 270.184952 94.348863 
L 271.404846 94.348863 
L 271.404846 90.104683 
L 272.62474 90.104683 
L 272.62474 88.887273 
L 273.844635 88.887273 
L 273.844635 92.673529 
L 275.064529 92.673529 
L 275.064529 103.29515 
L 276.284423 103.29515 
L 276.284423 121.645648 
L 277.504318 121.645648 
L 277.504318 145.848648 
L 278.724212 145.848648 
L 278.724212 174.19531 
L 279.944106 174.19531 
L 279.944106 201.279885 
L 281.164001 201.279885 
L 281.164001 223.975084 
L 282.383895 223.975084 
L 282.383895 241.376226 
L 283.603789 241.376226 
L 283.603789 250.099135 
L 284.823684 250.099135 
L 284.823684 251.662781 
L 286.043578 251.662781 
L 286.043578 248.892894 
L 287.263472 248.892894 
L 287.263472 240.92947 
L 288.483367 240.92947 
L 288.483367 232.128379 
L 289.703261 232.128379 
L 289.703261 230.955645 
L 290.923155 230.955645 
L 290.923155 239.254136 
L 292.14305 239.254136 
L 292.14305 250.099135 
L 293.362944 250.099135 
L 293.362944 262.284402 
L 294.582838 262.284402 
L 294.582838 278.222418 
L 295.802733 278.222418 
L 295.802733 293.423287 
L 297.022627 293.423287 
L 297.022627 306.234012 
L 298.242521 306.234012 
L 298.242521 317.559274 
L 299.462416 317.559274 
L 299.462416 325.466853 
L 300.68231 325.466853 
L 300.68231 327.745308 
L 301.902204 327.745308 
L 301.902204 329.75571 
L 303.122099 329.75571 
L 303.122099 333.29625 
L 304.341993 333.29625 
L 304.341993 337.160689 
L 305.561887 337.160689 
L 305.561887 340.958114 
L 306.781782 340.958114 
L 306.781782 347.458412 
L 308.001676 347.458412 
L 308.001676 355.042093 
L 309.22157 355.042093 
L 309.22157 361.05096 
L 310.441465 361.05096 
L 310.441465 364.859554 
L 311.661359 364.859554 
L 311.661359 366.076964 
L 312.881253 366.076964 
L 312.881253 364.725527 
L 314.101148 364.725527 
L 314.101148 362.692788 
L 315.321042 362.692788 
L 315.321042 362.402397 
L 317.760831 362.435903 
L 317.760831 362.145512 
L 318.980725 362.145512 
L 318.980725 363.284739 
L 320.200619 363.284739 
L 320.200619 365.663714 
L 321.420514 365.663714 
L 321.420514 370.231793 
L 322.640408 370.231793 
L 322.640408 377.75963 
L 323.860302 377.75963 
L 323.860302 390.972436 
L 325.080197 390.972436 
L 325.080197 409.423454 
L 326.300091 409.423454 
L 326.300091 429.158895 
L 327.519985 429.158895 
L 327.519985 449.799017 
L 328.73988 449.799017 
L 328.73988 468.4064 
L 329.959774 468.4064 
L 329.959774 480.077898 
L 331.179668 480.077898 
L 331.179668 484.232727 
L 332.399563 484.232727 
L 332.399563 477.285673 
L 333.619457 477.285673 
L 333.619457 459.549464 
L 334.839351 459.549464 
L 334.839351 435.971922 
L 336.059246 435.971922 
L 336.059246 410.439823 
L 337.27914 410.439823 
L 337.27914 391.966467 
L 338.499034 391.966467 
L 338.499034 380.89809 
L 339.718929 380.89809 
L 339.718929 377.301705 
L 340.938823 377.301705 
L 340.938823 384.941231 
L 342.158717 384.941231 
L 342.158717 400.063918 
L 343.378612 400.063918 
L 343.378612 412.986332 
L 344.598506 412.986332 
L 344.598506 421.463525 
L 345.8184 421.463525 
L 345.8184 428.823828 
L 347.038295 428.823828 
L 347.038295 429.81786 
L 348.258189 429.81786 
L 348.258189 422.580415 
L 349.478083 422.580415 
L 349.478083 414.170235 
L 350.697978 414.170235 
L 350.697978 406.430189 
L 351.917872 406.430189 
L 351.917872 397.874814 
L 353.137766 397.874814 
L 353.137766 394.88155 
L 354.357661 394.88155 
L 354.357661 397.908321 
L 355.577555 397.908321 
L 355.577555 401.180808 
L 356.797449 401.180808 
L 356.797449 406.508372 
L 358.017344 406.508372 
L 358.017344 413.51127 
L 359.237238 413.51127 
L 359.237238 416.85077 
L 360.457132 416.85077 
L 360.457132 415.588685 
L 361.677027 415.588685 
L 361.677027 412.405549 
L 362.896921 412.405549 
L 362.896921 405.525509 
L 364.116815 405.525509 
L 364.116815 395.417657 
L 365.33671 395.417657 
L 365.33671 387.833975 
L 366.556604 387.833975 
L 366.556604 382.852647 
L 367.776498 382.852647 
L 367.776498 379.066391 
L 368.996393 379.066391 
L 368.996393 377.647941 
L 370.216287 377.647941 
L 370.216287 380.909259 
L 371.436181 380.909259 
L 371.436181 384.427462 
L 372.656076 384.427462 
L 372.656076 385.857081 
L 373.87597 385.857081 
L 373.87597 387.465402 
L 375.095864 387.465402 
L 375.095864 387.163842 
L 376.315759 387.163842 
L 376.315759 383.556288 
L 377.535653 383.556288 
L 377.535653 380.138605 
L 378.755547 380.138605 
L 378.755547 377.994177 
L 379.975442 377.994177 
L 379.975442 375.134939 
L 381.195336 375.134939 
L 381.195336 371.951804 
L 382.41523 371.951804 
L 382.41523 371.449203 
L 383.635125 371.449203 
L 383.635125 371.627906 
L 384.855019 371.627906 
L 384.855019 369.852051 
L 386.074913 369.852051 
L 386.074913 367.316711 
L 387.294808 367.316711 
L 387.294808 362.782139 
L 388.514702 362.782139 
L 388.514702 355.421836 
L 389.734596 355.421836 
L 389.734596 348.8992 
L 390.954491 348.8992 
L 390.954491 343.694494 
L 392.174385 343.694494 
L 392.174385 339.081739 
L 393.394279 339.081739 
L 393.394279 333.921709 
L 394.614174 333.921709 
L 394.614174 331.07364 
L 395.834068 331.07364 
L 395.834068 329.387136 
L 397.053962 329.387136 
L 397.053962 327.42141 
L 398.273857 327.42141 
L 398.273857 326.61725 
L 399.493751 326.61725 
L 399.493751 325.087111 
L 400.713645 325.087111 
L 400.713645 322.350731 
L 401.93354 322.350731 
L 401.93354 318.497462 
L 403.153434 318.497462 
L 403.153434 313.974058 
L 404.373328 313.974058 
L 404.373328 309.260784 
L 405.593223 309.260784 
L 405.593223 304.53634 
L 406.813117 304.53634 
L 406.813117 300.738915 
L 408.033011 300.738915 
L 408.033011 298.929554 
L 409.252906 298.929554 
L 409.252906 298.05838 
L 410.4728 298.05838 
L 410.4728 297.14253 
L 411.692694 297.14253 
L 411.692694 295.590053 
L 412.912589 295.590053 
L 412.912589 292.88718 
L 414.132483 292.88718 
L 414.132483 289.134431 
L 415.352377 289.134431 
L 415.352377 285.024277 
L 416.572272 285.024277 
L 416.572272 282.55595 
L 417.792166 282.55595 
L 417.792166 280.500873 
L 419.01206 280.500873 
L 419.01206 278.501641 
L 420.231955 278.501641 
L 420.231955 276.971502 
L 421.451849 276.971502 
L 421.451849 276.156172 
L 422.671743 276.156172 
L 422.671743 275.899288 
L 423.891638 275.899288 
L 423.891638 274.815905 
L 425.111532 274.815905 
L 425.111532 274.469669 
L 426.331426 274.469669 
L 426.331426 274.190446 
L 427.551321 274.190446 
L 427.551321 271.833809 
L 428.771215 271.833809 
L 428.771215 269.935097 
L 429.991109 269.935097 
L 429.991109 268.393789 
L 431.211004 268.393789 
L 431.211004 265.657409 
L 432.430898 265.657409 
L 432.430898 263.088563 
L 433.650792 263.088563 
L 433.650792 262.172713 
L 434.870687 262.172713 
L 434.870687 260.419196 
L 436.090581 260.419196 
L 436.090581 257.202554 
L 437.310475 257.202554 
L 437.310475 254.410329 
L 438.53037 254.410329 
L 438.53037 251.36122 
L 439.750264 251.36122 
L 439.750264 247.184053 
L 440.970158 247.184053 
L 440.970158 243.96741 
L 442.190053 243.96741 
L 442.190053 242.638312 
L 443.409947 242.638312 
L 443.409947 241.365057 
L 444.629842 241.365057 
L 444.629842 240.259337 
L 447.06963 240.169985 
L 447.06963 239.72323 
L 448.289525 239.72323 
L 448.289525 239.164785 
L 450.729313 239.198291 
L 450.729313 238.449975 
L 451.949208 238.449975 
L 451.949208 236.115676 
L 453.169102 236.115676 
L 453.169102 232.977216 
L 454.388996 232.977216 
L 454.388996 230.140316 
L 455.608891 230.140316 
L 455.608891 227.124713 
L 456.828785 227.124713 
L 456.828785 224.455347 
L 458.048679 224.455347 
L 458.048679 221.730136 
L 459.268574 221.730136 
L 459.268574 218.893236 
L 460.488468 218.893236 
L 460.488468 217.039199 
L 461.708362 217.039199 
L 461.708362 214.60438 
L 462.928257 214.60438 
L 462.928257 210.918644 
L 464.148151 210.918644 
L 464.148151 206.462254 
L 465.368045 206.462254 
L 465.368045 200.732609 
L 466.58794 200.732609 
L 466.58794 194.321662 
L 467.807834 194.321662 
L 467.807834 188.480329 
L 469.027728 188.480329 
L 469.027728 181.846004 
L 470.247623 181.846004 
L 470.247623 174.49687 
L 471.467517 174.49687 
L 471.467517 168.063585 
L 472.687411 168.063585 
L 472.687411 163.115764 
L 473.907306 163.115764 
L 473.907306 159.552885 
L 475.1272 159.552885 
L 475.1272 156.87235 
L 476.347094 156.87235 
L 476.347094 156.280398 
L 477.566989 156.280398 
L 477.566989 156.135203 
L 478.786883 156.135203 
L 478.786883 155.286367 
L 480.006777 155.286367 
L 480.006777 154.739091 
L 481.226672 154.739091 
L 481.226672 154.113632 
L 482.446566 154.113632 
L 482.446566 153.074925 
L 483.66646 153.074925 
L 483.66646 152.594662 
L 484.886355 152.594662 
L 484.886355 153.108432 
L 486.106249 153.108432 
L 486.106249 155.029482 
L 487.326143 155.029482 
L 487.326143 156.012345 
L 488.546038 156.012345 
L 488.546038 156.939363 
L 489.765932 156.939363 
L 489.765932 158.19028 
L 490.985826 158.19028 
L 490.985826 158.637036 
L 492.205721 158.637036 
L 492.205721 155.509745 
L 493.425615 155.509745 
L 493.425615 151.075692 
L 494.645509 151.075692 
L 494.645509 145.692284 
L 495.865404 145.692284 
L 495.865404 139.460039 
L 497.085298 139.460039 
L 497.085298 131.909865 
L 498.305192 131.909865 
L 498.305192 122.03656 
L 499.525087 122.03656 
L 499.525087 112.542997 
L 500.744981 112.542997 
L 500.744981 104.233337 
L 501.964875 104.233337 
L 501.964875 97.107581 
L 503.18477 97.107581 
L 503.18477 92.327293 
L 504.404664 92.327293 
L 504.404664 91.433781 
L 505.624558 91.433781 
L 505.624558 95.577442 
L 506.844453 95.577442 
L 506.844453 106.925042 
L 508.064347 106.925042 
L 508.064347 126.224896 
L 509.284241 126.224896 
L 509.284241 151.589462 
L 510.504136 151.589462 
L 510.504136 178.629362 
L 511.72403 178.629362 
L 511.72403 207.255245 
L 512.943924 207.255245 
L 512.943924 232.921371 
L 514.163819 232.921371 
L 514.163819 250.143811 
L 515.383713 250.143811 
L 515.383713 260.385689 
L 516.603607 260.385689 
L 516.603607 263.378954 
L 517.823502 263.378954 
L 517.823502 260.765432 
L 519.043396 260.765432 
L 519.043396 253.662013 
L 520.26329 253.662013 
L 520.26329 246.837817 
L 521.483185 246.837817 
L 521.483185 246.011319 
L 522.703079 246.011319 
L 522.703079 251.149011 
L 523.922973 251.149011 
L 523.922973 260.408027 
L 525.142868 260.408027 
L 525.142868 272.704983 
L 526.362762 272.704983 
L 526.362762 287.42559 
L 527.582656 287.42559 
L 527.582656 301.866974 
L 528.802551 301.866974 
L 528.802551 314.387307 
L 530.022445 314.387307 
L 530.022445 325.243475 
L 531.242339 325.243475 
L 531.242339 332.235205 
L 532.462234 332.235205 
L 532.462234 334.547167 
L 533.682128 334.547167 
L 533.682128 335.139118 
L 534.902022 335.139118 
L 534.902022 336.010292 
L 536.121917 336.010292 
L 536.121917 336.222501 
L 537.341811 336.222501 
L 537.341811 337.45108 
L 538.561705 337.45108 
L 538.561705 340.946945 
L 539.7816 340.946945 
L 539.7816 346.397367 
L 541.001494 346.397367 
L 541.001494 350.898432 
L 542.221388 350.898432 
L 542.221388 355.243133 
L 543.441283 355.243133 
L 543.441283 358.482114 
L 544.661177 358.482114 
L 544.661177 360.190955 
L 545.881071 360.190955 
L 545.881071 361.508885 
L 547.100966 361.508885 
L 547.100966 363.050193 
L 548.32086 363.050193 
L 548.32086 364.379291 
L 549.540754 364.379291 
L 549.540754 365.30631 
L 550.760649 365.30631 
L 550.760649 365.730728 
L 551.980543 365.730728 
L 551.980543 366.668915 
L 553.200437 366.668915 
L 553.200437 369.840882 
L 554.420332 369.840882 
L 554.420332 376.64274 
L 555.640226 376.64274 
L 555.640226 388.470603 
L 556.86012 388.470603 
L 556.86012 404.978233 
L 558.080015 404.978233 
L 558.080015 424.747181 
L 559.299909 424.747181 
L 559.299909 444.717169 
L 560.519803 444.717169 
L 560.519803 462.33052 
L 561.739698 462.33052 
L 561.739698 476.40333 
L 562.959592 476.40333 
L 562.959592 481.67505 
L 564.179486 481.67505 
L 564.179486 474.013186 
L 565.399381 474.013186 
L 565.399381 455.428141 
L 566.619275 455.428141 
L 566.619275 431.828262 
L 567.839169 431.828262 
L 567.839169 406.821101 
L 569.059064 406.821101 
L 569.059064 385.633703 
L 570.278958 385.633703 
L 570.278958 373.236227 
L 571.498852 373.236227 
L 571.498852 371.873621 
L 572.718747 371.873621 
L 572.718747 378.507946 
L 573.938641 378.507946 
L 573.938641 389.989573 
L 575.158535 389.989573 
L 575.158535 403.515107 
L 576.37843 403.515107 
L 576.37843 413.835168 
L 577.598324 413.835168 
L 577.598324 418.78299 
L 578.818218 418.78299 
L 578.818218 418.481429 
L 580.038113 418.481429 
L 580.038113 412.349705 
L 581.258007 412.349705 
L 581.258007 402.431724 
L 582.477901 402.431724 
L 582.477901 392.268028 
L 583.697796 392.268028 
L 583.697796 384.662009 
L 584.91769 384.662009 
L 584.91769 380.563023 
L 586.137584 380.563023 
L 586.137584 381.054455 
L 587.357479 381.054455 
L 587.357479 386.337343 
L 588.577373 386.337343 
L 588.577373 393.541282 
L 589.797267 393.541282 
L 589.797267 401.292497 
L 591.017162 401.292497 
L 591.017162 407.569417 
L 592.237056 407.569417 
L 592.237056 410.37281 
L 593.45695 410.37281 
L 593.45695 408.072017 
L 594.676845 408.072017 
L 594.676845 402.498737 
L 595.896739 402.498737 
L 595.896739 395.763892 
L 597.116633 395.763892 
L 597.116633 388.258394 
L 598.336528 388.258394 
L 598.336528 382.31654 
L 599.556422 382.31654 
L 599.556422 378.47444 
L 600.776316 378.47444 
L 600.776316 377.446901 
L 601.996211 377.446901 
L 601.996211 378.653142 
L 603.216105 378.653142 
L 603.216105 381.51238 
L 604.435999 381.51238 
L 604.435999 384.34928 
L 605.655894 384.34928 
L 605.655894 385.678378 
L 606.875788 385.678378 
L 606.875788 385.410325 
L 608.095682 385.410325 
L 608.095682 383.500443 
L 609.315577 383.500443 
L 609.315577 379.837045 
L 610.535471 379.837045 
L 610.535471 376.218322 
L 611.755365 376.218322 
L 611.755365 373.783503 
L 612.97526 373.783503 
L 612.97526 372.007648 
L 614.195154 372.007648 
L 614.195154 371.326345 
L 615.415048 371.326345 
L 615.415048 370.946603 
L 616.634943 370.946603 
L 616.634943 369.919064 
L 617.854837 369.919064 
L 617.854837 367.517751 
L 619.074731 367.517751 
L 619.074731 363.653313 
L 620.294626 363.653313 
L 620.294626 358.102371 
L 621.51452 358.102371 
L 621.51452 352.093504 
L 622.734414 352.093504 
L 622.734414 347.011656 
L 623.954309 347.011656 
L 623.954309 342.767475 
L 625.174203 342.767475 
L 625.174203 338.512125 
L 626.394097 338.512125 
L 626.394097 336.144319 
L 627.613992 336.144319 
L 627.613992 334.81522 
L 628.833886 334.81522 
L 628.833886 334.401971 
L 630.05378 334.401971 
L 630.05378 334.290282 
L 631.273675 334.290282 
L 631.273675 333.664824 
L 632.493569 333.664824 
L 632.493569 332.090009 
L 633.713463 332.090009 
L 633.713463 328.348429 
L 634.933358 328.348429 
L 634.933358 324.048403 
L 636.153252 324.048403 
L 636.153252 319.368636 
L 637.373146 319.368636 
L 637.373146 314.029903 
L 638.593041 314.029903 
L 638.593041 308.467792 
L 639.812935 308.467792 
L 639.812935 304.03374 
L 641.032829 304.03374 
L 641.032829 300.415017 
L 642.252724 300.415017 
L 642.252724 297.622793 
L 643.472618 297.622793 
L 643.472618 294.082252 
L 644.692512 294.082252 
L 644.692512 290.787428 
L 645.912407 290.787428 
L 645.912407 286.900651 
L 647.132301 286.900651 
L 647.132301 282.488937 
L 648.352195 282.488937 
L 648.352195 278.244756 
L 649.57209 278.244756 
L 649.57209 275.195647 
L 650.791984 275.195647 
L 650.791984 273.352779 
L 652.011878 273.352779 
L 652.011878 271.92316 
L 653.231773 271.92316 
L 653.231773 270.649906 
L 654.451667 270.649906 
L 654.451667 270.046785 
L 655.671561 270.046785 
L 655.671561 269.08626 
L 656.891456 269.08626 
L 656.891456 266.841312 
L 658.11135 266.841312 
L 658.11135 264.372986 
L 659.331244 264.372986 
L 659.331244 261.368552 
L 660.551139 261.368552 
L 660.551139 257.716323 
L 661.771033 257.716323 
L 661.771033 253.773702 
L 662.990927 253.773702 
L 662.990927 251.026154 
L 664.210822 251.026154 
L 664.210822 248.468476 
L 665.430716 248.468476 
L 665.430716 244.961442 
L 666.65061 244.961442 
L 666.65061 241.108173 
L 667.870505 241.108173 
L 667.870505 237.098539 
L 669.090399 237.098539 
L 669.090399 232.988385 
L 670.310293 232.988385 
L 670.310293 228.230434 
L 671.530188 228.230434 
L 671.530188 222.389101 
L 672.750082 222.389101 
L 672.750082 216.000492 
L 673.969976 216.000492 
L 673.969976 209.544869 
L 675.189871 209.544869 
L 675.189871 203.882238 
L 676.409765 203.882238 
L 676.409765 199.492862 
L 677.629659 199.492862 
L 677.629659 196.734144 
L 678.849554 196.734144 
L 678.849554 196.57778 
L 680.069448 196.57778 
L 680.069448 198.644026 
L 681.289342 198.644026 
L 681.289342 203.25678 
L 682.509237 203.25678 
L 682.509237 209.410843 
L 683.729131 209.410843 
L 683.729131 214.459184 
L 684.949025 214.459184 
L 684.949025 218.256609 
L 686.16892 218.256609 
L 686.16892 221.28338 
L 687.388814 221.28338 
L 687.388814 221.450914 
L 688.608708 221.450914 
L 688.608708 219.641552 
L 689.828603 219.641552 
L 689.828603 217.798684 
L 691.048497 217.798684 
L 691.048497 216.413741 
L 692.268391 216.413741 
L 692.268391 212.515796 
L 693.488286 212.515796 
L 693.488286 207.981224 
L 694.70818 207.981224 
L 694.70818 206.6968 
L 695.928074 206.6968 
L 695.928074 205.010297 
L 697.147969 205.010297 
L 697.147969 201.53677 
L 698.367863 201.53677 
L 698.367863 198.655195 
L 699.587757 198.655195 
L 699.587757 195.650761 
L 700.807652 195.650761 
L 700.807652 191.629958 
L 702.027546 191.629958 
L 702.027546 185.699274 
L 703.24744 185.699274 
L 703.24744 180.07015 
L 704.467335 180.07015 
L 704.467335 176.250387 
L 705.687229 176.250387 
L 705.687229 173.569851 
L 706.907123 173.569851 
L 706.907123 172.285428 
L 708.127018 172.285428 
L 708.127018 172.687508 
L 709.346912 172.687508 
L 709.346912 173.156602 
L 710.566806 173.156602 
L 710.566806 172.821535 
L 711.786701 172.821535 
L 711.786701 171.436592 
L 713.006595 171.436592 
L 713.006595 170.141 
L 714.226489 170.141 
L 714.226489 169.180475 
L 716.666278 169.146968 
L 716.666278 170.308533 
L 717.886172 170.308533 
L 717.886172 171.436592 
L 719.106067 171.436592 
L 719.106067 173.592189 
L 720.325961 173.592189 
L 720.325961 176.21688 
L 721.545855 176.21688 
L 721.545855 177.802863 
L 722.76575 177.802863 
L 722.76575 179.567549 
L 723.985644 179.567549 
L 723.985644 181.298728 
L 725.205538 181.298728 
L 725.205538 180.952492 
L 726.425433 180.952492 
L 726.425433 176.429089 
L 727.645327 176.429089 
L 727.645327 169.001772 
L 728.865221 169.001772 
L 728.865221 160.256526 
L 730.085116 160.256526 
L 730.085116 150.673612 
L 731.30501 150.673612 
L 731.30501 141.704988 
L 732.524904 141.704988 
L 732.524904 135.003649 
L 733.744799 135.003649 
L 733.744799 132.457141 
L 734.964693 132.457141 
L 734.964693 133.853253 
L 736.184587 133.853253 
L 736.184587 139.359519 
L 737.404482 139.359519 
L 737.404482 149.724256 
L 738.624376 149.724256 
L 738.624376 164.187978 
L 739.84427 164.187978 
L 739.84427 182.59432 
L 741.064165 182.59432 
L 741.064165 202.13989 
L 742.284059 202.13989 
L 742.284059 221.58494 
L 743.503953 221.58494 
L 743.503953 238.919069 
L 744.723848 238.919069 
L 744.723848 252.947204 
L 745.943742 252.947204 
L 745.943742 262.90986 
L 747.163636 262.90986 
L 747.163636 262.90986 
" style="fill:none;stroke:#1f77b4;stroke-linecap:square;stroke-width:1.5;"/>
   </g>
   <g id="line2d_14">
    <path clip-path="url(#p496166c0d4)" d="M 150.635307 351.95017 
L 150.635307 290.954961 
L 175.033194 290.954961 
L 175.033194 290.954961 
L 199.43108 290.954961 
L 199.43108 229.959752 
L 223.828967 229.959752 
L 223.828967 168.964543 
L 248.226854 168.964543 
L 248.226854 107.969334 
L 272.62474 107.969334 
L 272.62474 290.954961 
L 297.022627 290.954961 
L 297.022627 351.95017 
L 321.420514 351.95017 
L 321.420514 412.945379 
L 345.8184 412.945379 
L 345.8184 351.95017 
L 370.216287 351.95017 
L 370.216287 351.95017 
L 394.614174 351.95017 
L 394.614174 290.954961 
L 419.01206 290.954961 
L 419.01206 229.959752 
L 443.409947 229.959752 
L 443.409947 168.964543 
L 467.807834 168.964543 
L 467.807834 168.964543 
L 492.205721 168.964543 
L 492.205721 229.959752 
L 516.603607 229.959752 
L 516.603607 351.95017 
L 541.001494 351.95017 
L 541.001494 473.940588 
L 565.399381 473.940588 
L 565.399381 412.945379 
L 589.797267 412.945379 
L 589.797267 351.95017 
L 614.195154 351.95017 
L 614.195154 290.954961 
L 638.593041 290.954961 
L 638.593041 229.959752 
L 662.990927 229.959752 
L 662.990927 229.959752 
L 687.388814 229.959752 
L 687.388814 168.964543 
L 711.786701 168.964543 
L 711.786701 107.969334 
L 736.184587 107.969334 
" style="fill:none;stroke:#ff7f0e;stroke-linecap:square;stroke-width:1.5;"/>
   </g>
   <g id="line2d_15">
    <path clip-path="url(#p496166c0d4)" d="M 108 290.954961 
L 777.6 290.954961 
" style="fill:none;opacity:0.2;stroke:#1f77b4;stroke-linecap:square;stroke-width:1.5;"/>
   </g>
   <g id="line2d_16">
    <path clip-path="url(#p496166c0d4)" d="M 108 290.954961 
L 777.6 290.954961 
" style="fill:none;opacity:0.2;stroke:#1f77b4;stroke-linecap:square;stroke-width:1.5;"/>
   </g>
   <g id="line2d_17">
    <path clip-path="url(#p496166c0d4)" d="M 108 229.959752 
L 777.6 229.959752 
" style="fill:none;opacity:0.2;stroke:#1f77b4;stroke-linecap:square;stroke-width:1.5;"/>
   </g>
   <g id="line2d_18">
    <path clip-path="url(#p496166c0d4)" d="M 108 351.95017 
L 777.6 351.95017 
" style="fill:none;opacity:0.2;stroke:#1f77b4;stroke-linecap:square;stroke-width:1.5;"/>
   </g>
   <g id="line2d_19">
    <path clip-path="url(#p496166c0d4)" d="M 108 168.964543 
L 777.6 168.964543 
" style="fill:none;opacity:0.2;stroke:#1f77b4;stroke-linecap:square;stroke-width:1.5;"/>
   </g>
   <g id="line2d_20">
    <path clip-path="url(#p496166c0d4)" d="M 108 412.945379 
L 777.6 412.945379 
" style="fill:none;opacity:0.2;stroke:#1f77b4;stroke-linecap:square;stroke-width:1.5;"/>
   </g>
   <g id="line2d_21">
    <path clip-path="url(#p496166c0d4)" d="M 108 107.969334 
L 777.6 107.969334 
" style="fill:none;opacity:0.2;stroke:#1f77b4;stroke-linecap:square;stroke-width:1.5;"/>
   </g>
   <g id="line2d_22">
    <path clip-path="url(#p496166c0d4)" d="M 108 473.940588 
L 777.6 473.940588 
" style="fill:none;opacity:0.2;stroke:#1f77b4;stroke-linecap:square;stroke-width:1.5;"/>
   </g>
   <g id="line2d_23">
    <path clip-path="url(#p496166c0d4)" d="M 108 290.954961 
L 777.6 290.954961 
" style="fill:none;stroke:#000000;stroke-linecap:square;stroke-width:1.5;"/>
   </g>
   <g id="legend_1">
    <g id="patch_2">
     <path d="M 619.984375 106.47625 
L 770.6 106.47625 
Q 772.6 106.47625 772.6 104.47625 
L 772.6 76.12 
Q 772.6 74.12 770.6 74.12 
L 619.984375 74.12 
Q 617.984375 74.12 617.984375 76.12 
L 617.984375 104.47625 
Q 617.984375 106.47625 619.984375 106.47625 
z
" style="fill:#ffffff;opacity:0.8;stroke:#cccccc;stroke-linejoin:miter;"/>
    </g>
    <g id="line2d_24">
     <path d="M 621.984375 82.218437 
L 641.984375 82.218437 
" style="fill:none;stroke:#1f77b4;stroke-linecap:square;stroke-width:1.5;"/>
    </g>
    <g id="line2d_25"/>
    <g id="text_13">
     <!-- Original -->
     <defs>
      <path d="M 39.40625 66.21875 
Q 28.65625 66.21875 22.328125 58.203125 
Q 16.015625 50.203125 16.015625 36.375 
Q 16.015625 22.609375 22.328125 14.59375 
Q 28.65625 6.59375 39.40625 6.59375 
Q 50.140625 6.59375 56.421875 14.59375 
Q 62.703125 22.609375 62.703125 36.375 
Q 62.703125 50.203125 56.421875 58.203125 
Q 50.140625 66.21875 39.40625 66.21875 
M 39.40625 74.21875 
Q 54.734375 74.21875 63.90625 63.9375 
Q 73.09375 53.65625 73.09375 36.375 
Q 73.09375 19.140625 63.90625 8.859375 
Q 54.734375 -1.421875 39.40625 -1.421875 
Q 24.03125 -1.421875 14.8125 8.828125 
Q 5.609375 19.09375 5.609375 36.375 
Q 5.609375 53.65625 14.8125 63.9375 
Q 24.03125 74.21875 39.40625 74.21875 
" id="DejaVuSans-4f"/>
      <path d="M 41.109375 46.296875 
Q 39.59375 47.171875 37.8125 47.578125 
Q 36.03125 48 33.890625 48 
Q 26.265625 48 22.1875 43.046875 
Q 18.109375 38.09375 18.109375 28.8125 
L 18.109375 0 
L 9.078125 0 
L 9.078125 54.6875 
L 18.109375 54.6875 
L 18.109375 46.1875 
Q 20.953125 51.171875 25.484375 53.578125 
Q 30.03125 56 36.53125 56 
Q 37.453125 56 38.578125 55.875 
Q 39.703125 55.765625 41.0625 55.515625 
z
" id="DejaVuSans-72"/>
      <path d="M 9.421875 54.6875 
L 18.40625 54.6875 
L 18.40625 0 
L 9.421875 0 
z
M 9.421875 75.984375 
L 18.40625 75.984375 
L 18.40625 64.59375 
L 9.421875 64.59375 
z
" id="DejaVuSans-69"/>
      <path d="M 45.40625 27.984375 
Q 45.40625 37.75 41.375 43.109375 
Q 37.359375 48.484375 30.078125 48.484375 
Q 22.859375 48.484375 18.828125 43.109375 
Q 14.796875 37.75 14.796875 27.984375 
Q 14.796875 18.265625 18.828125 12.890625 
Q 22.859375 7.515625 30.078125 7.515625 
Q 37.359375 7.515625 41.375 12.890625 
Q 45.40625 18.265625 45.40625 27.984375 
M 54.390625 6.78125 
Q 54.390625 -7.171875 48.1875 -13.984375 
Q 42 -20.796875 29.203125 -20.796875 
Q 24.46875 -20.796875 20.265625 -20.09375 
Q 16.0625 -19.390625 12.109375 -17.921875 
L 12.109375 -9.1875 
Q 16.0625 -11.328125 19.921875 -12.34375 
Q 23.78125 -13.375 27.78125 -13.375 
Q 36.625 -13.375 41.015625 -8.765625 
Q 45.40625 -4.15625 45.40625 5.171875 
L 45.40625 9.625 
Q 42.625 4.78125 38.28125 2.390625 
Q 33.9375 0 27.875 0 
Q 17.828125 0 11.671875 7.65625 
Q 5.515625 15.328125 5.515625 27.984375 
Q 5.515625 40.671875 11.671875 48.328125 
Q 17.828125 56 27.875 56 
Q 33.9375 56 38.28125 53.609375 
Q 42.625 51.21875 45.40625 46.390625 
L 45.40625 54.6875 
L 54.390625 54.6875 
z
" id="DejaVuSans-67"/>
      <path d="M 54.890625 33.015625 
L 54.890625 0 
L 45.90625 0 
L 45.90625 32.71875 
Q 45.90625 40.484375 42.875 44.328125 
Q 39.84375 48.1875 33.796875 48.1875 
Q 26.515625 48.1875 22.3125 43.546875 
Q 18.109375 38.921875 18.109375 30.90625 
L 18.109375 0 
L 9.078125 0 
L 9.078125 54.6875 
L 18.109375 54.6875 
L 18.109375 46.1875 
Q 21.34375 51.125 25.703125 53.5625 
Q 30.078125 56 35.796875 56 
Q 45.21875 56 50.046875 50.171875 
Q 54.890625 44.34375 54.890625 33.015625 
" id="DejaVuSans-6e"/>
      <path d="M 34.28125 27.484375 
Q 23.390625 27.484375 19.1875 25 
Q 14.984375 22.515625 14.984375 16.5 
Q 14.984375 11.71875 18.140625 8.90625 
Q 21.296875 6.109375 26.703125 6.109375 
Q 34.1875 6.109375 38.703125 11.40625 
Q 43.21875 16.703125 43.21875 25.484375 
L 43.21875 27.484375 
z
M 52.203125 31.203125 
L 52.203125 0 
L 43.21875 0 
L 43.21875 8.296875 
Q 40.140625 3.328125 35.546875 0.953125 
Q 30.953125 -1.421875 24.3125 -1.421875 
Q 15.921875 -1.421875 10.953125 3.296875 
Q 6 8.015625 6 15.921875 
Q 6 25.140625 12.171875 29.828125 
Q 18.359375 34.515625 30.609375 34.515625 
L 43.21875 34.515625 
L 43.21875 35.40625 
Q 43.21875 41.609375 39.140625 45 
Q 35.0625 48.390625 27.6875 48.390625 
Q 23 48.390625 18.546875 47.265625 
Q 14.109375 46.140625 10.015625 43.890625 
L 10.015625 52.203125 
Q 14.9375 54.109375 19.578125 55.046875 
Q 24.21875 56 28.609375 56 
Q 40.484375 56 46.34375 49.84375 
Q 52.203125 43.703125 52.203125 31.203125 
" id="DejaVuSans-61"/>
      <path d="M 9.421875 75.984375 
L 18.40625 75.984375 
L 18.40625 0 
L 9.421875 0 
z
" id="DejaVuSans-6c"/>
     </defs>
     <g transform="translate(649.984375 85.718437)scale(0.1 -0.1)">
      <use xlink:href="#DejaVuSans-4f"/>
      <use x="78.710938" xlink:href="#DejaVuSans-72"/>
      <use x="119.824219" xlink:href="#DejaVuSans-69"/>
      <use x="147.607422" xlink:href="#DejaVuSans-67"/>
      <use x="211.083984" xlink:href="#DejaVuSans-69"/>
      <use x="238.867188" xlink:href="#DejaVuSans-6e"/>
      <use x="302.246094" xlink:href="#DejaVuSans-61"/>
      <use x="363.525391" xlink:href="#DejaVuSans-6c"/>
     </g>
    </g>
    <g id="line2d_26">
     <path d="M 621.984375 96.896563 
L 641.984375 96.896563 
" style="fill:none;stroke:#ff7f0e;stroke-linecap:square;stroke-width:1.5;"/>
    </g>
    <g id="line2d_27"/>
    <g id="text_14">
     <!-- Sampled and quantized -->
     <defs>
      <path d="M 53.515625 70.515625 
L 53.515625 60.890625 
Q 47.90625 63.578125 42.921875 64.890625 
Q 37.9375 66.21875 33.296875 66.21875 
Q 25.25 66.21875 20.875 63.09375 
Q 16.5 59.96875 16.5 54.203125 
Q 16.5 49.359375 19.40625 46.890625 
Q 22.3125 44.4375 30.421875 42.921875 
L 36.375 41.703125 
Q 47.40625 39.59375 52.65625 34.296875 
Q 57.90625 29 57.90625 20.125 
Q 57.90625 9.515625 50.796875 4.046875 
Q 43.703125 -1.421875 29.984375 -1.421875 
Q 24.8125 -1.421875 18.96875 -0.25 
Q 13.140625 0.921875 6.890625 3.21875 
L 6.890625 13.375 
Q 12.890625 10.015625 18.65625 8.296875 
Q 24.421875 6.59375 29.984375 6.59375 
Q 38.421875 6.59375 43.015625 9.90625 
Q 47.609375 13.234375 47.609375 19.390625 
Q 47.609375 24.75 44.3125 27.78125 
Q 41.015625 30.8125 33.5 32.328125 
L 27.484375 33.5 
Q 16.453125 35.6875 11.515625 40.375 
Q 6.59375 45.0625 6.59375 53.421875 
Q 6.59375 63.09375 13.40625 68.65625 
Q 20.21875 74.21875 32.171875 74.21875 
Q 37.3125 74.21875 42.625 73.28125 
Q 47.953125 72.359375 53.515625 70.515625 
" id="DejaVuSans-53"/>
      <path d="M 52 44.1875 
Q 55.375 50.25 60.0625 53.125 
Q 64.75 56 71.09375 56 
Q 79.640625 56 84.28125 50.015625 
Q 88.921875 44.046875 88.921875 33.015625 
L 88.921875 0 
L 79.890625 0 
L 79.890625 32.71875 
Q 79.890625 40.578125 77.09375 44.375 
Q 74.3125 48.1875 68.609375 48.1875 
Q 61.625 48.1875 57.5625 43.546875 
Q 53.515625 38.921875 53.515625 30.90625 
L 53.515625 0 
L 44.484375 0 
L 44.484375 32.71875 
Q 44.484375 40.625 41.703125 44.40625 
Q 38.921875 48.1875 33.109375 48.1875 
Q 26.21875 48.1875 22.15625 43.53125 
Q 18.109375 38.875 18.109375 30.90625 
L 18.109375 0 
L 9.078125 0 
L 9.078125 54.6875 
L 18.109375 54.6875 
L 18.109375 46.1875 
Q 21.1875 51.21875 25.484375 53.609375 
Q 29.78125 56 35.6875 56 
Q 41.65625 56 45.828125 52.96875 
Q 50 49.953125 52 44.1875 
" id="DejaVuSans-6d"/>
      <path d="M 18.109375 8.203125 
L 18.109375 -20.796875 
L 9.078125 -20.796875 
L 9.078125 54.6875 
L 18.109375 54.6875 
L 18.109375 46.390625 
Q 20.953125 51.265625 25.265625 53.625 
Q 29.59375 56 35.59375 56 
Q 45.5625 56 51.78125 48.09375 
Q 58.015625 40.1875 58.015625 27.296875 
Q 58.015625 14.40625 51.78125 6.484375 
Q 45.5625 -1.421875 35.59375 -1.421875 
Q 29.59375 -1.421875 25.265625 0.953125 
Q 20.953125 3.328125 18.109375 8.203125 
M 48.6875 27.296875 
Q 48.6875 37.203125 44.609375 42.84375 
Q 40.53125 48.484375 33.40625 48.484375 
Q 26.265625 48.484375 22.1875 42.84375 
Q 18.109375 37.203125 18.109375 27.296875 
Q 18.109375 17.390625 22.1875 11.75 
Q 26.265625 6.109375 33.40625 6.109375 
Q 40.53125 6.109375 44.609375 11.75 
Q 48.6875 17.390625 48.6875 27.296875 
" id="DejaVuSans-70"/>
      <path d="M 56.203125 29.59375 
L 56.203125 25.203125 
L 14.890625 25.203125 
Q 15.484375 15.921875 20.484375 11.0625 
Q 25.484375 6.203125 34.421875 6.203125 
Q 39.59375 6.203125 44.453125 7.46875 
Q 49.3125 8.734375 54.109375 11.28125 
L 54.109375 2.78125 
Q 49.265625 0.734375 44.1875 -0.34375 
Q 39.109375 -1.421875 33.890625 -1.421875 
Q 20.796875 -1.421875 13.15625 6.1875 
Q 5.515625 13.8125 5.515625 26.8125 
Q 5.515625 40.234375 12.765625 48.109375 
Q 20.015625 56 32.328125 56 
Q 43.359375 56 49.78125 48.890625 
Q 56.203125 41.796875 56.203125 29.59375 
M 47.21875 32.234375 
Q 47.125 39.59375 43.09375 43.984375 
Q 39.0625 48.390625 32.421875 48.390625 
Q 24.90625 48.390625 20.390625 44.140625 
Q 15.875 39.890625 15.1875 32.171875 
z
" id="DejaVuSans-65"/>
      <path d="M 45.40625 46.390625 
L 45.40625 75.984375 
L 54.390625 75.984375 
L 54.390625 0 
L 45.40625 0 
L 45.40625 8.203125 
Q 42.578125 3.328125 38.25 0.953125 
Q 33.9375 -1.421875 27.875 -1.421875 
Q 17.96875 -1.421875 11.734375 6.484375 
Q 5.515625 14.40625 5.515625 27.296875 
Q 5.515625 40.1875 11.734375 48.09375 
Q 17.96875 56 27.875 56 
Q 33.9375 56 38.25 53.625 
Q 42.578125 51.265625 45.40625 46.390625 
M 14.796875 27.296875 
Q 14.796875 17.390625 18.875 11.75 
Q 22.953125 6.109375 30.078125 6.109375 
Q 37.203125 6.109375 41.296875 11.75 
Q 45.40625 17.390625 45.40625 27.296875 
Q 45.40625 37.203125 41.296875 42.84375 
Q 37.203125 48.484375 30.078125 48.484375 
Q 22.953125 48.484375 18.875 42.84375 
Q 14.796875 37.203125 14.796875 27.296875 
" id="DejaVuSans-64"/>
      <path id="DejaVuSans-20"/>
      <path d="M 14.796875 27.296875 
Q 14.796875 17.390625 18.875 11.75 
Q 22.953125 6.109375 30.078125 6.109375 
Q 37.203125 6.109375 41.296875 11.75 
Q 45.40625 17.390625 45.40625 27.296875 
Q 45.40625 37.203125 41.296875 42.84375 
Q 37.203125 48.484375 30.078125 48.484375 
Q 22.953125 48.484375 18.875 42.84375 
Q 14.796875 37.203125 14.796875 27.296875 
M 45.40625 8.203125 
Q 42.578125 3.328125 38.25 0.953125 
Q 33.9375 -1.421875 27.875 -1.421875 
Q 17.96875 -1.421875 11.734375 6.484375 
Q 5.515625 14.40625 5.515625 27.296875 
Q 5.515625 40.1875 11.734375 48.09375 
Q 17.96875 56 27.875 56 
Q 33.9375 56 38.25 53.625 
Q 42.578125 51.265625 45.40625 46.390625 
L 45.40625 54.6875 
L 54.390625 54.6875 
L 54.390625 -20.796875 
L 45.40625 -20.796875 
z
" id="DejaVuSans-71"/>
      <path d="M 8.5 21.578125 
L 8.5 54.6875 
L 17.484375 54.6875 
L 17.484375 21.921875 
Q 17.484375 14.15625 20.5 10.265625 
Q 23.53125 6.390625 29.59375 6.390625 
Q 36.859375 6.390625 41.078125 11.03125 
Q 45.3125 15.671875 45.3125 23.6875 
L 45.3125 54.6875 
L 54.296875 54.6875 
L 54.296875 0 
L 45.3125 0 
L 45.3125 8.40625 
Q 42.046875 3.421875 37.71875 1 
Q 33.40625 -1.421875 27.6875 -1.421875 
Q 18.265625 -1.421875 13.375 4.4375 
Q 8.5 10.296875 8.5 21.578125 
M 31.109375 56 
z
" id="DejaVuSans-75"/>
      <path d="M 18.3125 70.21875 
L 18.3125 54.6875 
L 36.8125 54.6875 
L 36.8125 47.703125 
L 18.3125 47.703125 
L 18.3125 18.015625 
Q 18.3125 11.328125 20.140625 9.421875 
Q 21.96875 7.515625 27.59375 7.515625 
L 36.8125 7.515625 
L 36.8125 0 
L 27.59375 0 
Q 17.1875 0 13.234375 3.875 
Q 9.28125 7.765625 9.28125 18.015625 
L 9.28125 47.703125 
L 2.6875 47.703125 
L 2.6875 54.6875 
L 9.28125 54.6875 
L 9.28125 70.21875 
z
" id="DejaVuSans-74"/>
      <path d="M 5.515625 54.6875 
L 48.1875 54.6875 
L 48.1875 46.484375 
L 14.40625 7.171875 
L 48.1875 7.171875 
L 48.1875 0 
L 4.296875 0 
L 4.296875 8.203125 
L 38.09375 47.515625 
L 5.515625 47.515625 
z
" id="DejaVuSans-7a"/>
     </defs>
     <g transform="translate(649.984375 100.396563)scale(0.1 -0.1)">
      <use xlink:href="#DejaVuSans-53"/>
      <use x="63.476562" xlink:href="#DejaVuSans-61"/>
      <use x="124.755859" xlink:href="#DejaVuSans-6d"/>
      <use x="222.167969" xlink:href="#DejaVuSans-70"/>
      <use x="285.644531" xlink:href="#DejaVuSans-6c"/>
      <use x="313.427734" xlink:href="#DejaVuSans-65"/>
      <use x="374.951172" xlink:href="#DejaVuSans-64"/>
      <use x="438.427734" xlink:href="#DejaVuSans-20"/>
      <use x="470.214844" xlink:href="#DejaVuSans-61"/>
      <use x="531.494141" xlink:href="#DejaVuSans-6e"/>
      <use x="594.873047" xlink:href="#DejaVuSans-64"/>
      <use x="658.349609" xlink:href="#DejaVuSans-20"/>
      <use x="690.136719" xlink:href="#DejaVuSans-71"/>
      <use x="753.613281" xlink:href="#DejaVuSans-75"/>
      <use x="816.992188" xlink:href="#DejaVuSans-61"/>
      <use x="878.271484" xlink:href="#DejaVuSans-6e"/>
      <use x="941.650391" xlink:href="#DejaVuSans-74"/>
      <use x="980.859375" xlink:href="#DejaVuSans-69"/>
      <use x="1008.642578" xlink:href="#DejaVuSans-7a"/>
      <use x="1061.132812" xlink:href="#DejaVuSans-65"/>
      <use x="1122.65625" xlink:href="#DejaVuSans-64"/>
     </g>
    </g>
   </g>
  </g>
 </g>
 <defs>
  <clipPath id="p496166c0d4">
   <rect height="434.88" width="669.6" x="108" y="69.12"/>
  </clipPath>
 </defs>
</svg>
