<?xml version="1.0" encoding="utf-8" standalone="no"?>
<!DOCTYPE svg PUBLIC "-//W3C//DTD SVG 1.1//EN"
  "http://www.w3.org/Graphics/SVG/1.1/DTD/svg11.dtd">
<!-- Created with matplotlib (http://matplotlib.org/) -->
<svg height="576pt" version="1.1" viewBox="0 0 864 576" width="864pt" xmlns="http://www.w3.org/2000/svg" xmlns:xlink="http://www.w3.org/1999/xlink">
 <defs>
  <style type="text/css">
*{stroke-linecap:butt;stroke-linejoin:round;}
  </style>
 </defs>
 <g id="figure_1">
  <g id="patch_1">
   <path d="M 0 576 
L 864 576 
L 864 0 
L 0 0 
z
" style="fill:#ffffff;"/>
  </g>
  <g id="axes_1">
   <g id="patch_2">
    <path clip-path="url(#pfde587cf3f)" d="M 138.436364 290.954961 
L 162.354921 290.954961 
L 162.354921 379.189249 
L 138.436364 379.189249 
z
" style="fill:#ff7f0e;opacity:0.2;stroke:#ff0000;stroke-linejoin:miter;"/>
   </g>
   <g id="patch_3">
    <path clip-path="url(#pfde587cf3f)" d="M 162.354921 290.954961 
L 186.273477 290.954961 
L 186.273477 329.588177 
L 162.354921 329.588177 
z
" style="fill:#ff7f0e;opacity:0.2;stroke:#ff0000;stroke-linejoin:miter;"/>
   </g>
   <g id="patch_4">
    <path clip-path="url(#pfde587cf3f)" d="M 186.273477 290.954961 
L 210.192034 290.954961 
L 210.192034 280.601393 
L 186.273477 280.601393 
z
" style="fill:#ff7f0e;opacity:0.2;stroke:#ff0000;stroke-linejoin:miter;"/>
   </g>
   <g id="patch_5">
    <path clip-path="url(#pfde587cf3f)" d="M 210.192034 290.954961 
L 234.110591 290.954961 
L 234.110591 254.589032 
L 210.192034 254.589032 
z
" style="fill:#ff7f0e;opacity:0.2;stroke:#ff0000;stroke-linejoin:miter;"/>
   </g>
   <g id="patch_6">
    <path clip-path="url(#pfde587cf3f)" d="M 234.110591 290.954961 
L 258.029148 290.954961 
L 258.029148 188.446822 
L 234.110591 188.446822 
z
" style="fill:#ff7f0e;opacity:0.2;stroke:#ff0000;stroke-linejoin:miter;"/>
   </g>
   <g id="patch_7">
    <path clip-path="url(#pfde587cf3f)" d="M 258.029148 290.954961 
L 281.947705 290.954961 
L 281.947705 146.920863 
L 258.029148 146.920863 
z
" style="fill:#ff7f0e;opacity:0.2;stroke:#ff0000;stroke-linejoin:miter;"/>
   </g>
   <g id="patch_8">
    <path clip-path="url(#pfde587cf3f)" d="M 281.947705 290.954961 
L 305.866262 290.954961 
L 305.866262 250.099135 
L 281.947705 250.099135 
z
" style="fill:#ff7f0e;opacity:0.2;stroke:#ff0000;stroke-linejoin:miter;"/>
   </g>
   <g id="patch_9">
    <path clip-path="url(#pfde587cf3f)" d="M 305.866262 290.954961 
L 329.784819 290.954961 
L 329.784819 355.042093 
L 305.866262 355.042093 
z
" style="fill:#ff7f0e;opacity:0.2;stroke:#ff0000;stroke-linejoin:miter;"/>
   </g>
   <g id="patch_10">
    <path clip-path="url(#pfde587cf3f)" d="M 329.784819 290.954961 
L 353.703376 290.954961 
L 353.703376 477.285673 
L 329.784819 477.285673 
z
" style="fill:#ff7f0e;opacity:0.2;stroke:#ff0000;stroke-linejoin:miter;"/>
   </g>
   <g id="patch_11">
    <path clip-path="url(#pfde587cf3f)" d="M 353.703376 290.954961 
L 377.621932 290.954961 
L 377.621932 406.508372 
L 353.703376 406.508372 
z
" style="fill:#ff7f0e;opacity:0.2;stroke:#ff0000;stroke-linejoin:miter;"/>
   </g>
   <g id="patch_12">
    <path clip-path="url(#pfde587cf3f)" d="M 377.621932 290.954961 
L 401.540489 290.954961 
L 401.540489 371.951804 
L 377.621932 371.951804 
z
" style="fill:#ff7f0e;opacity:0.2;stroke:#ff0000;stroke-linejoin:miter;"/>
   </g>
   <g id="patch_13">
    <path clip-path="url(#pfde587cf3f)" d="M 401.540489 290.954961 
L 425.459046 290.954961 
L 425.459046 304.53634 
L 401.540489 304.53634 
z
" style="fill:#ff7f0e;opacity:0.2;stroke:#ff0000;stroke-linejoin:miter;"/>
   </g>
   <g id="patch_14">
    <path clip-path="url(#pfde587cf3f)" d="M 425.459046 290.954961 
L 449.377603 290.954961 
L 449.377603 268.393789 
L 425.459046 268.393789 
z
" style="fill:#ff7f0e;opacity:0.2;stroke:#ff0000;stroke-linejoin:miter;"/>
   </g>
   <g id="patch_15">
    <path clip-path="url(#pfde587cf3f)" d="M 449.377603 290.954961 
L 473.29616 290.954961 
L 473.29616 230.140316 
L 449.377603 230.140316 
z
" style="fill:#ff7f0e;opacity:0.2;stroke:#ff0000;stroke-linejoin:miter;"/>
   </g>
   <g id="patch_16">
    <path clip-path="url(#pfde587cf3f)" d="M 473.29616 290.954961 
L 497.214717 290.954961 
L 497.214717 155.286367 
L 473.29616 155.286367 
z
" style="fill:#ff7f0e;opacity:0.2;stroke:#ff0000;stroke-linejoin:miter;"/>
   </g>
   <g id="patch_17">
    <path clip-path="url(#pfde587cf3f)" d="M 497.214717 290.954961 
L 521.133274 290.954961 
L 521.133274 92.327293 
L 497.214717 92.327293 
z
" style="fill:#ff7f0e;opacity:0.2;stroke:#ff0000;stroke-linejoin:miter;"/>
   </g>
   <g id="patch_18">
    <path clip-path="url(#pfde587cf3f)" d="M 521.133274 290.954961 
L 545.051831 290.954961 
L 545.051831 301.866974 
L 521.133274 301.866974 
z
" style="fill:#ff7f0e;opacity:0.2;stroke:#ff0000;stroke-linejoin:miter;"/>
   </g>
   <g id="patch_19">
    <path clip-path="url(#pfde587cf3f)" d="M 545.051831 290.954961 
L 568.970388 290.954961 
L 568.970388 366.668915 
L 545.051831 366.668915 
z
" style="fill:#ff7f0e;opacity:0.2;stroke:#ff0000;stroke-linejoin:miter;"/>
   </g>
   <g id="patch_20">
    <path clip-path="url(#pfde587cf3f)" d="M 568.970388 290.954961 
L 592.888944 290.954961 
L 592.888944 413.835168 
L 568.970388 413.835168 
z
" style="fill:#ff7f0e;opacity:0.2;stroke:#ff0000;stroke-linejoin:miter;"/>
   </g>
   <g id="patch_21">
    <path clip-path="url(#pfde587cf3f)" d="M 592.888944 290.954961 
L 616.807501 290.954961 
L 616.807501 377.446901 
L 592.888944 377.446901 
z
" style="fill:#ff7f0e;opacity:0.2;stroke:#ff0000;stroke-linejoin:miter;"/>
   </g>
   <g id="patch_22">
    <path clip-path="url(#pfde587cf3f)" d="M 616.807501 290.954961 
L 640.726058 290.954961 
L 640.726058 338.512125 
L 616.807501 338.512125 
z
" style="fill:#ff7f0e;opacity:0.2;stroke:#ff0000;stroke-linejoin:miter;"/>
   </g>
   <g id="patch_23">
    <path clip-path="url(#pfde587cf3f)" d="M 640.726058 290.954961 
L 664.644615 290.954961 
L 664.644615 275.195647 
L 640.726058 275.195647 
z
" style="fill:#ff7f0e;opacity:0.2;stroke:#ff0000;stroke-linejoin:miter;"/>
   </g>
   <g id="patch_24">
    <path clip-path="url(#pfde587cf3f)" d="M 664.644615 290.954961 
L 688.563172 290.954961 
L 688.563172 209.544869 
L 664.644615 209.544869 
z
" style="fill:#ff7f0e;opacity:0.2;stroke:#ff0000;stroke-linejoin:miter;"/>
   </g>
   <g id="patch_25">
    <path clip-path="url(#pfde587cf3f)" d="M 688.563172 290.954961 
L 712.481729 290.954961 
L 712.481729 198.655195 
L 688.563172 198.655195 
z
" style="fill:#ff7f0e;opacity:0.2;stroke:#ff0000;stroke-linejoin:miter;"/>
   </g>
   <g id="patch_26">
    <path clip-path="url(#pfde587cf3f)" d="M 712.481729 290.954961 
L 736.400286 290.954961 
L 736.400286 179.567549 
L 712.481729 179.567549 
z
" style="fill:#ff7f0e;opacity:0.2;stroke:#ff0000;stroke-linejoin:miter;"/>
   </g>
   <g id="matplotlib.axis_1">
    <g id="xtick_1">
     <g id="line2d_1">
      <defs>
       <path d="M 0 0 
L 0 3.5 
" id="m10dae4fc1d" style="stroke:#000000;stroke-width:0.8;"/>
      </defs>
      <g>
       <use style="stroke:#000000;stroke-width:0.8;" x="150.395642" xlink:href="#m10dae4fc1d" y="504"/>
      </g>
     </g>
     <g id="text_1">
      <!-- 0.000 -->
      <defs>
       <path d="M 31.78125 66.40625 
Q 24.171875 66.40625 20.328125 58.90625 
Q 16.5 51.421875 16.5 36.375 
Q 16.5 21.390625 20.328125 13.890625 
Q 24.171875 6.390625 31.78125 6.390625 
Q 39.453125 6.390625 43.28125 13.890625 
Q 47.125 21.390625 47.125 36.375 
Q 47.125 51.421875 43.28125 58.90625 
Q 39.453125 66.40625 31.78125 66.40625 
z
M 31.78125 74.21875 
Q 44.046875 74.21875 50.515625 64.515625 
Q 56.984375 54.828125 56.984375 36.375 
Q 56.984375 17.96875 50.515625 8.265625 
Q 44.046875 -1.421875 31.78125 -1.421875 
Q 19.53125 -1.421875 13.0625 8.265625 
Q 6.59375 17.96875 6.59375 36.375 
Q 6.59375 54.828125 13.0625 64.515625 
Q 19.53125 74.21875 31.78125 74.21875 
z
" id="DejaVuSans-30"/>
       <path d="M 10.6875 12.40625 
L 21 12.40625 
L 21 0 
L 10.6875 0 
z
" id="DejaVuSans-2e"/>
      </defs>
      <g transform="translate(136.08158 518.598438)scale(0.1 -0.1)">
       <use xlink:href="#DejaVuSans-30"/>
       <use x="63.623047" xlink:href="#DejaVuSans-2e"/>
       <use x="95.410156" xlink:href="#DejaVuSans-30"/>
       <use x="159.033203" xlink:href="#DejaVuSans-30"/>
       <use x="222.65625" xlink:href="#DejaVuSans-30"/>
      </g>
     </g>
    </g>
    <g id="xtick_2">
     <g id="line2d_2">
      <g>
       <use style="stroke:#000000;stroke-width:0.8;" x="255.876478" xlink:href="#m10dae4fc1d" y="504"/>
      </g>
     </g>
     <g id="text_2">
      <!-- 0.002 -->
      <defs>
       <path d="M 19.1875 8.296875 
L 53.609375 8.296875 
L 53.609375 0 
L 7.328125 0 
L 7.328125 8.296875 
Q 12.9375 14.109375 22.625 23.890625 
Q 32.328125 33.6875 34.8125 36.53125 
Q 39.546875 41.84375 41.421875 45.53125 
Q 43.3125 49.21875 43.3125 52.78125 
Q 43.3125 58.59375 39.234375 62.25 
Q 35.15625 65.921875 28.609375 65.921875 
Q 23.96875 65.921875 18.8125 64.3125 
Q 13.671875 62.703125 7.8125 59.421875 
L 7.8125 69.390625 
Q 13.765625 71.78125 18.9375 73 
Q 24.125 74.21875 28.421875 74.21875 
Q 39.75 74.21875 46.484375 68.546875 
Q 53.21875 62.890625 53.21875 53.421875 
Q 53.21875 48.921875 51.53125 44.890625 
Q 49.859375 40.875 45.40625 35.40625 
Q 44.1875 33.984375 37.640625 27.21875 
Q 31.109375 20.453125 19.1875 8.296875 
z
" id="DejaVuSans-32"/>
      </defs>
      <g transform="translate(241.562415 518.598438)scale(0.1 -0.1)">
       <use xlink:href="#DejaVuSans-30"/>
       <use x="63.623047" xlink:href="#DejaVuSans-2e"/>
       <use x="95.410156" xlink:href="#DejaVuSans-30"/>
       <use x="159.033203" xlink:href="#DejaVuSans-30"/>
       <use x="222.65625" xlink:href="#DejaVuSans-32"/>
      </g>
     </g>
    </g>
    <g id="xtick_3">
     <g id="line2d_3">
      <g>
       <use style="stroke:#000000;stroke-width:0.8;" x="361.357314" xlink:href="#m10dae4fc1d" y="504"/>
      </g>
     </g>
     <g id="text_3">
      <!-- 0.004 -->
      <defs>
       <path d="M 37.796875 64.3125 
L 12.890625 25.390625 
L 37.796875 25.390625 
z
M 35.203125 72.90625 
L 47.609375 72.90625 
L 47.609375 25.390625 
L 58.015625 25.390625 
L 58.015625 17.1875 
L 47.609375 17.1875 
L 47.609375 0 
L 37.796875 0 
L 37.796875 17.1875 
L 4.890625 17.1875 
L 4.890625 26.703125 
z
" id="DejaVuSans-34"/>
      </defs>
      <g transform="translate(347.043251 518.598438)scale(0.1 -0.1)">
       <use xlink:href="#DejaVuSans-30"/>
       <use x="63.623047" xlink:href="#DejaVuSans-2e"/>
       <use x="95.410156" xlink:href="#DejaVuSans-30"/>
       <use x="159.033203" xlink:href="#DejaVuSans-30"/>
       <use x="222.65625" xlink:href="#DejaVuSans-34"/>
      </g>
     </g>
    </g>
    <g id="xtick_4">
     <g id="line2d_4">
      <g>
       <use style="stroke:#000000;stroke-width:0.8;" x="466.83815" xlink:href="#m10dae4fc1d" y="504"/>
      </g>
     </g>
     <g id="text_4">
      <!-- 0.006 -->
      <defs>
       <path d="M 33.015625 40.375 
Q 26.375 40.375 22.484375 35.828125 
Q 18.609375 31.296875 18.609375 23.390625 
Q 18.609375 15.53125 22.484375 10.953125 
Q 26.375 6.390625 33.015625 6.390625 
Q 39.65625 6.390625 43.53125 10.953125 
Q 47.40625 15.53125 47.40625 23.390625 
Q 47.40625 31.296875 43.53125 35.828125 
Q 39.65625 40.375 33.015625 40.375 
z
M 52.59375 71.296875 
L 52.59375 62.3125 
Q 48.875 64.0625 45.09375 64.984375 
Q 41.3125 65.921875 37.59375 65.921875 
Q 27.828125 65.921875 22.671875 59.328125 
Q 17.53125 52.734375 16.796875 39.40625 
Q 19.671875 43.65625 24.015625 45.921875 
Q 28.375 48.1875 33.59375 48.1875 
Q 44.578125 48.1875 50.953125 41.515625 
Q 57.328125 34.859375 57.328125 23.390625 
Q 57.328125 12.15625 50.6875 5.359375 
Q 44.046875 -1.421875 33.015625 -1.421875 
Q 20.359375 -1.421875 13.671875 8.265625 
Q 6.984375 17.96875 6.984375 36.375 
Q 6.984375 53.65625 15.1875 63.9375 
Q 23.390625 74.21875 37.203125 74.21875 
Q 40.921875 74.21875 44.703125 73.484375 
Q 48.484375 72.75 52.59375 71.296875 
z
" id="DejaVuSans-36"/>
      </defs>
      <g transform="translate(452.524087 518.598438)scale(0.1 -0.1)">
       <use xlink:href="#DejaVuSans-30"/>
       <use x="63.623047" xlink:href="#DejaVuSans-2e"/>
       <use x="95.410156" xlink:href="#DejaVuSans-30"/>
       <use x="159.033203" xlink:href="#DejaVuSans-30"/>
       <use x="222.65625" xlink:href="#DejaVuSans-36"/>
      </g>
     </g>
    </g>
    <g id="xtick_5">
     <g id="line2d_5">
      <g>
       <use style="stroke:#000000;stroke-width:0.8;" x="572.318986" xlink:href="#m10dae4fc1d" y="504"/>
      </g>
     </g>
     <g id="text_5">
      <!-- 0.008 -->
      <defs>
       <path d="M 31.78125 34.625 
Q 24.75 34.625 20.71875 30.859375 
Q 16.703125 27.09375 16.703125 20.515625 
Q 16.703125 13.921875 20.71875 10.15625 
Q 24.75 6.390625 31.78125 6.390625 
Q 38.8125 6.390625 42.859375 10.171875 
Q 46.921875 13.96875 46.921875 20.515625 
Q 46.921875 27.09375 42.890625 30.859375 
Q 38.875 34.625 31.78125 34.625 
z
M 21.921875 38.8125 
Q 15.578125 40.375 12.03125 44.71875 
Q 8.5 49.078125 8.5 55.328125 
Q 8.5 64.0625 14.71875 69.140625 
Q 20.953125 74.21875 31.78125 74.21875 
Q 42.671875 74.21875 48.875 69.140625 
Q 55.078125 64.0625 55.078125 55.328125 
Q 55.078125 49.078125 51.53125 44.71875 
Q 48 40.375 41.703125 38.8125 
Q 48.828125 37.15625 52.796875 32.3125 
Q 56.78125 27.484375 56.78125 20.515625 
Q 56.78125 9.90625 50.3125 4.234375 
Q 43.84375 -1.421875 31.78125 -1.421875 
Q 19.734375 -1.421875 13.25 4.234375 
Q 6.78125 9.90625 6.78125 20.515625 
Q 6.78125 27.484375 10.78125 32.3125 
Q 14.796875 37.15625 21.921875 38.8125 
z
M 18.3125 54.390625 
Q 18.3125 48.734375 21.84375 45.5625 
Q 25.390625 42.390625 31.78125 42.390625 
Q 38.140625 42.390625 41.71875 45.5625 
Q 45.3125 48.734375 45.3125 54.390625 
Q 45.3125 60.0625 41.71875 63.234375 
Q 38.140625 66.40625 31.78125 66.40625 
Q 25.390625 66.40625 21.84375 63.234375 
Q 18.3125 60.0625 18.3125 54.390625 
z
" id="DejaVuSans-38"/>
      </defs>
      <g transform="translate(558.004923 518.598438)scale(0.1 -0.1)">
       <use xlink:href="#DejaVuSans-30"/>
       <use x="63.623047" xlink:href="#DejaVuSans-2e"/>
       <use x="95.410156" xlink:href="#DejaVuSans-30"/>
       <use x="159.033203" xlink:href="#DejaVuSans-30"/>
       <use x="222.65625" xlink:href="#DejaVuSans-38"/>
      </g>
     </g>
    </g>
    <g id="xtick_6">
     <g id="line2d_6">
      <g>
       <use style="stroke:#000000;stroke-width:0.8;" x="677.799821" xlink:href="#m10dae4fc1d" y="504"/>
      </g>
     </g>
     <g id="text_6">
      <!-- 0.010 -->
      <defs>
       <path d="M 12.40625 8.296875 
L 28.515625 8.296875 
L 28.515625 63.921875 
L 10.984375 60.40625 
L 10.984375 69.390625 
L 28.421875 72.90625 
L 38.28125 72.90625 
L 38.28125 8.296875 
L 54.390625 8.296875 
L 54.390625 0 
L 12.40625 0 
z
" id="DejaVuSans-31"/>
      </defs>
      <g transform="translate(663.485759 518.598438)scale(0.1 -0.1)">
       <use xlink:href="#DejaVuSans-30"/>
       <use x="63.623047" xlink:href="#DejaVuSans-2e"/>
       <use x="95.410156" xlink:href="#DejaVuSans-30"/>
       <use x="159.033203" xlink:href="#DejaVuSans-31"/>
       <use x="222.65625" xlink:href="#DejaVuSans-30"/>
      </g>
     </g>
    </g>
   </g>
   <g id="matplotlib.axis_2">
    <g id="ytick_1">
     <g id="line2d_7">
      <defs>
       <path d="M 0 0 
L -3.5 0 
" id="m9b03a10a07" style="stroke:#000000;stroke-width:0.8;"/>
      </defs>
      <g>
       <use style="stroke:#000000;stroke-width:0.8;" x="108" xlink:href="#m9b03a10a07" y="437.343463"/>
      </g>
     </g>
     <g id="text_7">
      <!-- −0.2 -->
      <defs>
       <path d="M 10.59375 35.5 
L 73.1875 35.5 
L 73.1875 27.203125 
L 10.59375 27.203125 
z
" id="DejaVuSans-2212"/>
      </defs>
      <g transform="translate(76.717187 441.142682)scale(0.1 -0.1)">
       <use xlink:href="#DejaVuSans-2212"/>
       <use x="83.789062" xlink:href="#DejaVuSans-30"/>
       <use x="147.412109" xlink:href="#DejaVuSans-2e"/>
       <use x="179.199219" xlink:href="#DejaVuSans-32"/>
      </g>
     </g>
    </g>
    <g id="ytick_2">
     <g id="line2d_8">
      <g>
       <use style="stroke:#000000;stroke-width:0.8;" x="108" xlink:href="#m9b03a10a07" y="364.149212"/>
      </g>
     </g>
     <g id="text_8">
      <!-- −0.1 -->
      <g transform="translate(76.717187 367.948431)scale(0.1 -0.1)">
       <use xlink:href="#DejaVuSans-2212"/>
       <use x="83.789062" xlink:href="#DejaVuSans-30"/>
       <use x="147.412109" xlink:href="#DejaVuSans-2e"/>
       <use x="179.199219" xlink:href="#DejaVuSans-31"/>
      </g>
     </g>
    </g>
    <g id="ytick_3">
     <g id="line2d_9">
      <g>
       <use style="stroke:#000000;stroke-width:0.8;" x="108" xlink:href="#m9b03a10a07" y="290.954961"/>
      </g>
     </g>
     <g id="text_9">
      <!-- 0.0 -->
      <g transform="translate(85.096875 294.75418)scale(0.1 -0.1)">
       <use xlink:href="#DejaVuSans-30"/>
       <use x="63.623047" xlink:href="#DejaVuSans-2e"/>
       <use x="95.410156" xlink:href="#DejaVuSans-30"/>
      </g>
     </g>
    </g>
    <g id="ytick_4">
     <g id="line2d_10">
      <g>
       <use style="stroke:#000000;stroke-width:0.8;" x="108" xlink:href="#m9b03a10a07" y="217.76071"/>
      </g>
     </g>
     <g id="text_10">
      <!-- 0.1 -->
      <g transform="translate(85.096875 221.559929)scale(0.1 -0.1)">
       <use xlink:href="#DejaVuSans-30"/>
       <use x="63.623047" xlink:href="#DejaVuSans-2e"/>
       <use x="95.410156" xlink:href="#DejaVuSans-31"/>
      </g>
     </g>
    </g>
    <g id="ytick_5">
     <g id="line2d_11">
      <g>
       <use style="stroke:#000000;stroke-width:0.8;" x="108" xlink:href="#m9b03a10a07" y="144.566459"/>
      </g>
     </g>
     <g id="text_11">
      <!-- 0.2 -->
      <g transform="translate(85.096875 148.365678)scale(0.1 -0.1)">
       <use xlink:href="#DejaVuSans-30"/>
       <use x="63.623047" xlink:href="#DejaVuSans-2e"/>
       <use x="95.410156" xlink:href="#DejaVuSans-32"/>
      </g>
     </g>
    </g>
    <g id="ytick_6">
     <g id="line2d_12">
      <g>
       <use style="stroke:#000000;stroke-width:0.8;" x="108" xlink:href="#m9b03a10a07" y="71.372208"/>
      </g>
     </g>
     <g id="text_12">
      <!-- 0.3 -->
      <defs>
       <path d="M 40.578125 39.3125 
Q 47.65625 37.796875 51.625 33 
Q 55.609375 28.21875 55.609375 21.1875 
Q 55.609375 10.40625 48.1875 4.484375 
Q 40.765625 -1.421875 27.09375 -1.421875 
Q 22.515625 -1.421875 17.65625 -0.515625 
Q 12.796875 0.390625 7.625 2.203125 
L 7.625 11.71875 
Q 11.71875 9.328125 16.59375 8.109375 
Q 21.484375 6.890625 26.8125 6.890625 
Q 36.078125 6.890625 40.9375 10.546875 
Q 45.796875 14.203125 45.796875 21.1875 
Q 45.796875 27.640625 41.28125 31.265625 
Q 36.765625 34.90625 28.71875 34.90625 
L 20.21875 34.90625 
L 20.21875 43.015625 
L 29.109375 43.015625 
Q 36.375 43.015625 40.234375 45.921875 
Q 44.09375 48.828125 44.09375 54.296875 
Q 44.09375 59.90625 40.109375 62.90625 
Q 36.140625 65.921875 28.71875 65.921875 
Q 24.65625 65.921875 20.015625 65.03125 
Q 15.375 64.15625 9.8125 62.3125 
L 9.8125 71.09375 
Q 15.4375 72.65625 20.34375 73.4375 
Q 25.25 74.21875 29.59375 74.21875 
Q 40.828125 74.21875 47.359375 69.109375 
Q 53.90625 64.015625 53.90625 55.328125 
Q 53.90625 49.265625 50.4375 45.09375 
Q 46.96875 40.921875 40.578125 39.3125 
z
" id="DejaVuSans-33"/>
      </defs>
      <g transform="translate(85.096875 75.171427)scale(0.1 -0.1)">
       <use xlink:href="#DejaVuSans-30"/>
       <use x="63.623047" xlink:href="#DejaVuSans-2e"/>
       <use x="95.410156" xlink:href="#DejaVuSans-33"/>
      </g>
     </g>
    </g>
   </g>
   <g id="line2d_13">
    <path clip-path="url(#pfde587cf3f)" d="M 150.395642 379.189249 
L 151.59157 383.143039 
L 152.787498 385.175778 
L 153.983426 386.761761 
L 155.179353 387.498909 
L 156.375281 385.644872 
L 157.571209 381.110299 
L 158.767137 377.75963 
L 161.158993 374.677015 
L 162.354921 373.459605 
L 163.550848 373.046356 
L 164.746776 371.549723 
L 165.942704 368.589966 
L 167.138632 364.423967 
L 168.33456 357.555095 
L 169.530488 349.546996 
L 170.726415 343.136049 
L 173.118271 332.849494 
L 174.314199 329.588177 
L 175.510127 328.728171 
L 176.706055 327.577775 
L 179.09791 325.008929 
L 180.293838 322.529433 
L 181.489766 318.955386 
L 182.685694 314.119254 
L 185.07755 303.899713 
L 186.273477 299.767221 
L 187.469405 296.483565 
L 188.665333 294.91992 
L 192.253117 292.462762 
L 193.449044 290.686908 
L 195.8409 283.661671 
L 197.036828 281.863479 
L 198.232756 280.601393 
L 199.428684 278.579823 
L 203.016467 274.994607 
L 204.212395 274.034082 
L 205.408323 274.4585 
L 206.604251 273.732522 
L 207.800179 272.079525 
L 210.192034 271.487573 
L 211.387962 270.906791 
L 212.58389 271.766796 
L 213.779818 272.783165 
L 214.975746 271.856147 
L 217.367601 267.098197 
L 218.563529 263.781034 
L 219.759457 260.017116 
L 220.955385 257.046189 
L 225.739096 247.295742 
L 226.935024 245.955474 
L 228.130952 245.341185 
L 229.32688 245.564563 
L 230.522808 244.302477 
L 231.718735 241.420902 
L 234.110591 232.418771 
L 237.698375 222.29975 
L 238.894303 219.094276 
L 240.09023 215.486723 
L 242.482086 205.937315 
L 243.678014 200.777285 
L 246.06987 188.446822 
L 247.265797 182.114058 
L 249.657653 167.616829 
L 250.853581 161.641469 
L 252.049509 157.27443 
L 253.245437 154.169477 
L 254.441365 152.605831 
L 255.637292 151.946866 
L 256.83322 150.606599 
L 258.029148 148.015415 
L 259.225076 146.150209 
L 260.421004 145.904493 
L 261.616932 146.194884 
L 262.812859 147.568659 
L 264.008787 149.523216 
L 265.204715 150.372052 
L 266.400643 150.036985 
L 267.596571 150.59543 
L 268.792499 150.092829 
L 269.988427 146.920863 
L 271.184354 142.810708 
L 272.380282 138.008083 
L 275.968066 119.925638 
L 277.163994 113.860927 
L 280.751777 94.348863 
L 281.947705 90.104683 
L 283.143633 88.887273 
L 284.339561 92.673529 
L 285.535488 103.29515 
L 286.731416 121.645648 
L 287.927344 145.848648 
L 290.3192 201.279885 
L 291.515128 223.975084 
L 292.711056 241.376226 
L 293.906983 250.099135 
L 295.102911 251.662781 
L 296.298839 248.892894 
L 297.494767 240.92947 
L 298.690695 232.128379 
L 299.886623 230.955645 
L 301.08255 239.254136 
L 302.278478 250.099135 
L 303.474406 262.284402 
L 305.866262 293.423287 
L 307.06219 306.234012 
L 308.258118 317.559274 
L 309.454045 325.466853 
L 310.649973 327.745308 
L 311.845901 329.75571 
L 314.237757 337.160689 
L 315.433685 340.958114 
L 316.629612 347.458412 
L 317.82554 355.042093 
L 319.021468 361.05096 
L 320.217396 364.859554 
L 321.413324 366.076964 
L 322.609252 364.725527 
L 323.805179 362.692788 
L 325.001107 362.402397 
L 326.197035 362.435903 
L 327.392963 362.145512 
L 328.588891 363.284739 
L 329.784819 365.663714 
L 330.980747 370.231793 
L 332.176674 377.75963 
L 333.372602 390.972436 
L 335.764458 429.158895 
L 336.960386 449.799017 
L 338.156314 468.4064 
L 339.352241 480.077898 
L 340.548169 484.232727 
L 341.744097 477.285673 
L 342.940025 459.549464 
L 345.331881 410.439823 
L 346.527809 391.966467 
L 347.723736 380.89809 
L 348.919664 377.301705 
L 350.115592 384.941231 
L 351.31152 400.063918 
L 352.507448 412.986332 
L 353.703376 421.463525 
L 354.899303 428.823828 
L 356.095231 429.81786 
L 357.291159 422.580415 
L 360.878943 397.874814 
L 362.074871 394.88155 
L 364.466726 401.180808 
L 365.662654 406.508372 
L 366.858582 413.51127 
L 368.05451 416.85077 
L 369.250438 415.588685 
L 370.446365 412.405549 
L 371.642293 405.525509 
L 372.838221 395.417657 
L 374.034149 387.833975 
L 375.230077 382.852647 
L 376.426005 379.066391 
L 377.621932 377.647941 
L 380.013788 384.427462 
L 381.209716 385.857081 
L 382.405644 387.465402 
L 383.601572 387.163842 
L 385.993427 380.138605 
L 387.189355 377.994177 
L 388.385283 375.134939 
L 389.581211 371.951804 
L 390.777139 371.449203 
L 391.973067 371.627906 
L 393.168994 369.852051 
L 394.364922 367.316711 
L 395.56085 362.782139 
L 396.756778 355.421836 
L 397.952706 348.8992 
L 399.148634 343.694494 
L 400.344562 339.081739 
L 401.540489 333.921709 
L 402.736417 331.07364 
L 403.932345 329.387136 
L 405.128273 327.42141 
L 406.324201 326.61725 
L 407.520129 325.087111 
L 408.716056 322.350731 
L 409.911984 318.497462 
L 414.695696 300.738915 
L 415.891624 298.929554 
L 418.283479 297.14253 
L 419.479407 295.590053 
L 420.675335 292.88718 
L 423.067191 285.024277 
L 424.263118 282.55595 
L 426.654974 278.501641 
L 427.850902 276.971502 
L 429.04683 276.156172 
L 430.242758 275.899288 
L 431.438685 274.815905 
L 433.830541 274.190446 
L 435.026469 271.833809 
L 436.222397 269.935097 
L 437.418325 268.393789 
L 439.81018 263.088563 
L 441.006108 262.172713 
L 442.202036 260.419196 
L 443.397964 257.202554 
L 445.78982 251.36122 
L 446.985747 247.184053 
L 448.181675 243.96741 
L 450.573531 241.365057 
L 451.769459 240.259337 
L 452.965387 240.169985 
L 455.357242 239.164785 
L 456.55317 239.198291 
L 457.749098 238.449975 
L 458.945026 236.115676 
L 461.336882 230.140316 
L 462.532809 227.124713 
L 466.120593 218.893236 
L 467.316521 217.039199 
L 468.512449 214.60438 
L 469.708376 210.918644 
L 470.904304 206.462254 
L 472.100232 200.732609 
L 476.883944 174.49687 
L 478.079871 168.063585 
L 479.275799 163.115764 
L 480.471727 159.552885 
L 481.667655 156.87235 
L 482.863583 156.280398 
L 484.059511 156.135203 
L 485.255438 155.286367 
L 487.647294 154.113632 
L 488.843222 153.074925 
L 490.03915 152.594662 
L 491.235078 153.108432 
L 492.431006 155.029482 
L 494.822861 156.939363 
L 496.018789 158.19028 
L 497.214717 158.637036 
L 498.410645 155.509745 
L 499.606573 151.075692 
L 500.8025 145.692284 
L 501.998428 139.460039 
L 503.194356 131.909865 
L 505.586212 112.542997 
L 506.78214 104.233337 
L 507.978068 97.107581 
L 509.173995 92.327293 
L 510.369923 91.433781 
L 511.565851 95.577442 
L 512.761779 106.925042 
L 513.957707 126.224896 
L 516.349562 178.629362 
L 517.54549 207.255245 
L 518.741418 232.921371 
L 519.937346 250.143811 
L 521.133274 260.385689 
L 522.329202 263.378954 
L 523.525129 260.765432 
L 525.916985 246.837817 
L 527.112913 246.011319 
L 528.308841 251.149011 
L 529.504769 260.408027 
L 530.700697 272.704983 
L 533.092552 301.866974 
L 534.28848 314.387307 
L 535.484408 325.243475 
L 536.680336 332.235205 
L 537.876264 334.547167 
L 539.072191 335.139118 
L 540.268119 336.010292 
L 541.464047 336.222501 
L 542.659975 337.45108 
L 543.855903 340.946945 
L 545.051831 346.397367 
L 547.443686 355.243133 
L 548.639614 358.482114 
L 549.835542 360.190955 
L 551.03147 361.508885 
L 552.227398 363.050193 
L 553.423326 364.379291 
L 554.619253 365.30631 
L 555.815181 365.730728 
L 557.011109 366.668915 
L 558.207037 369.840882 
L 559.402965 376.64274 
L 560.598893 388.470603 
L 561.794821 404.978233 
L 564.186676 444.717169 
L 565.382604 462.33052 
L 566.578532 476.40333 
L 567.77446 481.67505 
L 568.970388 474.013186 
L 570.166315 455.428141 
L 573.754099 385.633703 
L 574.950027 373.236227 
L 576.145955 371.873621 
L 577.341882 378.507946 
L 578.53781 389.989573 
L 579.733738 403.515107 
L 580.929666 413.835168 
L 582.125594 418.78299 
L 583.321522 418.481429 
L 584.51745 412.349705 
L 586.909305 392.268028 
L 588.105233 384.662009 
L 589.301161 380.563023 
L 590.497089 381.054455 
L 591.693017 386.337343 
L 595.2808 407.569417 
L 596.476728 410.37281 
L 597.672656 408.072017 
L 598.868584 402.498737 
L 600.064512 395.763892 
L 601.260439 388.258394 
L 602.456367 382.31654 
L 603.652295 378.47444 
L 604.848223 377.446901 
L 606.044151 378.653142 
L 608.436006 384.34928 
L 609.631934 385.678378 
L 610.827862 385.410325 
L 612.02379 383.500443 
L 614.415646 376.218322 
L 615.611573 373.783503 
L 616.807501 372.007648 
L 618.003429 371.326345 
L 619.199357 370.946603 
L 620.395285 369.919064 
L 621.591213 367.517751 
L 622.787141 363.653313 
L 626.374924 347.011656 
L 628.76678 338.512125 
L 629.962708 336.144319 
L 631.158635 334.81522 
L 632.354563 334.401971 
L 633.550491 334.290282 
L 634.746419 333.664824 
L 635.942347 332.090009 
L 637.138275 328.348429 
L 639.53013 319.368636 
L 641.921986 308.467792 
L 643.117914 304.03374 
L 644.313842 300.415017 
L 645.50977 297.622793 
L 649.097553 286.900651 
L 651.489409 278.244756 
L 652.685337 275.195647 
L 653.881265 273.352779 
L 656.27312 270.649906 
L 657.469048 270.046785 
L 658.664976 269.08626 
L 661.056832 264.372986 
L 662.252759 261.368552 
L 664.644615 253.773702 
L 667.036471 248.468476 
L 668.232399 244.961442 
L 670.624254 237.098539 
L 671.820182 232.988385 
L 673.01611 228.230434 
L 675.407966 216.000492 
L 676.603894 209.544869 
L 677.799821 203.882238 
L 678.995749 199.492862 
L 680.191677 196.734144 
L 681.387605 196.57778 
L 682.583533 198.644026 
L 683.779461 203.25678 
L 684.975388 209.410843 
L 686.171316 214.459184 
L 687.367244 218.256609 
L 688.563172 221.28338 
L 689.7591 221.450914 
L 692.150956 217.798684 
L 693.346883 216.413741 
L 694.542811 212.515796 
L 695.738739 207.981224 
L 696.934667 206.6968 
L 698.130595 205.010297 
L 699.326523 201.53677 
L 701.718378 195.650761 
L 702.914306 191.629958 
L 705.306162 180.07015 
L 706.50209 176.250387 
L 707.698018 173.569851 
L 708.893945 172.285428 
L 711.285801 173.156602 
L 712.481729 172.821535 
L 714.873585 170.141 
L 716.069512 169.180475 
L 717.26544 169.146968 
L 719.657296 171.436592 
L 720.853224 173.592189 
L 722.049152 176.21688 
L 724.441007 179.567549 
L 725.636935 181.298728 
L 726.832863 180.952492 
L 728.028791 176.429089 
L 729.224719 169.001772 
L 730.420647 160.256526 
L 732.812502 141.704988 
L 734.00843 135.003649 
L 735.204358 132.457141 
L 736.400286 133.853253 
L 737.596214 139.359519 
L 738.792141 149.724256 
L 739.988069 164.187978 
L 742.379925 202.13989 
L 743.575853 221.58494 
L 744.771781 238.919069 
L 745.967709 252.947204 
L 747.163636 262.90986 
L 747.163636 262.90986 
" style="fill:none;stroke:#1f77b4;stroke-linecap:square;stroke-width:2;"/>
   </g>
   <g id="line2d_14">
    <defs>
     <path d="M 0 3 
C 0.795609 3 1.55874 2.683901 2.12132 2.12132 
C 2.683901 1.55874 3 0.795609 3 0 
C 3 -0.795609 2.683901 -1.55874 2.12132 -2.12132 
C 1.55874 -2.683901 0.795609 -3 0 -3 
C -0.795609 -3 -1.55874 -2.683901 -2.12132 -2.12132 
C -2.683901 -1.55874 -3 -0.795609 -3 0 
C -3 0.795609 -2.683901 1.55874 -2.12132 2.12132 
C -1.55874 2.683901 -0.795609 3 0 3 
z
" id="m418720ff92" style="stroke:#ff7f0e;"/>
    </defs>
    <g clip-path="url(#pfde587cf3f)">
     <use style="fill:#ff7f0e;stroke:#ff7f0e;" x="150.395642" xlink:href="#m418720ff92" y="379.189249"/>
    </g>
   </g>
   <g id="line2d_15">
    <g clip-path="url(#pfde587cf3f)">
     <use style="fill:#ff7f0e;stroke:#ff7f0e;" x="174.314199" xlink:href="#m418720ff92" y="329.588177"/>
    </g>
   </g>
   <g id="line2d_16">
    <g clip-path="url(#pfde587cf3f)">
     <use style="fill:#ff7f0e;stroke:#ff7f0e;" x="198.232756" xlink:href="#m418720ff92" y="280.601393"/>
    </g>
   </g>
   <g id="line2d_17">
    <g clip-path="url(#pfde587cf3f)">
     <use style="fill:#ff7f0e;stroke:#ff7f0e;" x="222.151313" xlink:href="#m418720ff92" y="254.589032"/>
    </g>
   </g>
   <g id="line2d_18">
    <g clip-path="url(#pfde587cf3f)">
     <use style="fill:#ff7f0e;stroke:#ff7f0e;" x="246.06987" xlink:href="#m418720ff92" y="188.446822"/>
    </g>
   </g>
   <g id="line2d_19">
    <g clip-path="url(#pfde587cf3f)">
     <use style="fill:#ff7f0e;stroke:#ff7f0e;" x="269.988427" xlink:href="#m418720ff92" y="146.920863"/>
    </g>
   </g>
   <g id="line2d_20">
    <g clip-path="url(#pfde587cf3f)">
     <use style="fill:#ff7f0e;stroke:#ff7f0e;" x="293.906983" xlink:href="#m418720ff92" y="250.099135"/>
    </g>
   </g>
   <g id="line2d_21">
    <g clip-path="url(#pfde587cf3f)">
     <use style="fill:#ff7f0e;stroke:#ff7f0e;" x="317.82554" xlink:href="#m418720ff92" y="355.042093"/>
    </g>
   </g>
   <g id="line2d_22">
    <g clip-path="url(#pfde587cf3f)">
     <use style="fill:#ff7f0e;stroke:#ff7f0e;" x="341.744097" xlink:href="#m418720ff92" y="477.285673"/>
    </g>
   </g>
   <g id="line2d_23">
    <g clip-path="url(#pfde587cf3f)">
     <use style="fill:#ff7f0e;stroke:#ff7f0e;" x="365.662654" xlink:href="#m418720ff92" y="406.508372"/>
    </g>
   </g>
   <g id="line2d_24">
    <g clip-path="url(#pfde587cf3f)">
     <use style="fill:#ff7f0e;stroke:#ff7f0e;" x="389.581211" xlink:href="#m418720ff92" y="371.951804"/>
    </g>
   </g>
   <g id="line2d_25">
    <g clip-path="url(#pfde587cf3f)">
     <use style="fill:#ff7f0e;stroke:#ff7f0e;" x="413.499768" xlink:href="#m418720ff92" y="304.53634"/>
    </g>
   </g>
   <g id="line2d_26">
    <g clip-path="url(#pfde587cf3f)">
     <use style="fill:#ff7f0e;stroke:#ff7f0e;" x="437.418325" xlink:href="#m418720ff92" y="268.393789"/>
    </g>
   </g>
   <g id="line2d_27">
    <g clip-path="url(#pfde587cf3f)">
     <use style="fill:#ff7f0e;stroke:#ff7f0e;" x="461.336882" xlink:href="#m418720ff92" y="230.140316"/>
    </g>
   </g>
   <g id="line2d_28">
    <g clip-path="url(#pfde587cf3f)">
     <use style="fill:#ff7f0e;stroke:#ff7f0e;" x="485.255438" xlink:href="#m418720ff92" y="155.286367"/>
    </g>
   </g>
   <g id="line2d_29">
    <g clip-path="url(#pfde587cf3f)">
     <use style="fill:#ff7f0e;stroke:#ff7f0e;" x="509.173995" xlink:href="#m418720ff92" y="92.327293"/>
    </g>
   </g>
   <g id="line2d_30">
    <g clip-path="url(#pfde587cf3f)">
     <use style="fill:#ff7f0e;stroke:#ff7f0e;" x="533.092552" xlink:href="#m418720ff92" y="301.866974"/>
    </g>
   </g>
   <g id="line2d_31">
    <g clip-path="url(#pfde587cf3f)">
     <use style="fill:#ff7f0e;stroke:#ff7f0e;" x="557.011109" xlink:href="#m418720ff92" y="366.668915"/>
    </g>
   </g>
   <g id="line2d_32">
    <g clip-path="url(#pfde587cf3f)">
     <use style="fill:#ff7f0e;stroke:#ff7f0e;" x="580.929666" xlink:href="#m418720ff92" y="413.835168"/>
    </g>
   </g>
   <g id="line2d_33">
    <g clip-path="url(#pfde587cf3f)">
     <use style="fill:#ff7f0e;stroke:#ff7f0e;" x="604.848223" xlink:href="#m418720ff92" y="377.446901"/>
    </g>
   </g>
   <g id="line2d_34">
    <g clip-path="url(#pfde587cf3f)">
     <use style="fill:#ff7f0e;stroke:#ff7f0e;" x="628.76678" xlink:href="#m418720ff92" y="338.512125"/>
    </g>
   </g>
   <g id="line2d_35">
    <g clip-path="url(#pfde587cf3f)">
     <use style="fill:#ff7f0e;stroke:#ff7f0e;" x="652.685337" xlink:href="#m418720ff92" y="275.195647"/>
    </g>
   </g>
   <g id="line2d_36">
    <g clip-path="url(#pfde587cf3f)">
     <use style="fill:#ff7f0e;stroke:#ff7f0e;" x="676.603894" xlink:href="#m418720ff92" y="209.544869"/>
    </g>
   </g>
   <g id="line2d_37">
    <g clip-path="url(#pfde587cf3f)">
     <use style="fill:#ff7f0e;stroke:#ff7f0e;" x="700.52245" xlink:href="#m418720ff92" y="198.655195"/>
    </g>
   </g>
   <g id="line2d_38">
    <g clip-path="url(#pfde587cf3f)">
     <use style="fill:#ff7f0e;stroke:#ff7f0e;" x="724.441007" xlink:href="#m418720ff92" y="179.567549"/>
    </g>
   </g>
   <g id="line2d_39">
    <path clip-path="url(#pfde587cf3f)" d="M 108 290.954961 
L 777.6 290.954961 
" style="fill:none;stroke:#ff7f0e;stroke-linecap:square;stroke-width:1.5;"/>
   </g>
   <g id="legend_1">
    <g id="patch_27">
     <path d="M 694.754688 106.47625 
L 770.6 106.47625 
Q 772.6 106.47625 772.6 104.47625 
L 772.6 76.12 
Q 772.6 74.12 770.6 74.12 
L 694.754688 74.12 
Q 692.754688 74.12 692.754688 76.12 
L 692.754688 104.47625 
Q 692.754688 106.47625 694.754688 106.47625 
z
" style="fill:#ffffff;opacity:0.8;stroke:#cccccc;stroke-linejoin:miter;"/>
    </g>
    <g id="line2d_40">
     <path d="M 696.754688 82.218437 
L 716.754688 82.218437 
" style="fill:none;stroke:#1f77b4;stroke-linecap:square;stroke-width:2;"/>
    </g>
    <g id="line2d_41"/>
    <g id="text_13">
     <!-- Original -->
     <defs>
      <path d="M 39.40625 66.21875 
Q 28.65625 66.21875 22.328125 58.203125 
Q 16.015625 50.203125 16.015625 36.375 
Q 16.015625 22.609375 22.328125 14.59375 
Q 28.65625 6.59375 39.40625 6.59375 
Q 50.140625 6.59375 56.421875 14.59375 
Q 62.703125 22.609375 62.703125 36.375 
Q 62.703125 50.203125 56.421875 58.203125 
Q 50.140625 66.21875 39.40625 66.21875 
z
M 39.40625 74.21875 
Q 54.734375 74.21875 63.90625 63.9375 
Q 73.09375 53.65625 73.09375 36.375 
Q 73.09375 19.140625 63.90625 8.859375 
Q 54.734375 -1.421875 39.40625 -1.421875 
Q 24.03125 -1.421875 14.8125 8.828125 
Q 5.609375 19.09375 5.609375 36.375 
Q 5.609375 53.65625 14.8125 63.9375 
Q 24.03125 74.21875 39.40625 74.21875 
z
" id="DejaVuSans-4f"/>
      <path d="M 41.109375 46.296875 
Q 39.59375 47.171875 37.8125 47.578125 
Q 36.03125 48 33.890625 48 
Q 26.265625 48 22.1875 43.046875 
Q 18.109375 38.09375 18.109375 28.8125 
L 18.109375 0 
L 9.078125 0 
L 9.078125 54.6875 
L 18.109375 54.6875 
L 18.109375 46.1875 
Q 20.953125 51.171875 25.484375 53.578125 
Q 30.03125 56 36.53125 56 
Q 37.453125 56 38.578125 55.875 
Q 39.703125 55.765625 41.0625 55.515625 
z
" id="DejaVuSans-72"/>
      <path d="M 9.421875 54.6875 
L 18.40625 54.6875 
L 18.40625 0 
L 9.421875 0 
z
M 9.421875 75.984375 
L 18.40625 75.984375 
L 18.40625 64.59375 
L 9.421875 64.59375 
z
" id="DejaVuSans-69"/>
      <path d="M 45.40625 27.984375 
Q 45.40625 37.75 41.375 43.109375 
Q 37.359375 48.484375 30.078125 48.484375 
Q 22.859375 48.484375 18.828125 43.109375 
Q 14.796875 37.75 14.796875 27.984375 
Q 14.796875 18.265625 18.828125 12.890625 
Q 22.859375 7.515625 30.078125 7.515625 
Q 37.359375 7.515625 41.375 12.890625 
Q 45.40625 18.265625 45.40625 27.984375 
z
M 54.390625 6.78125 
Q 54.390625 -7.171875 48.1875 -13.984375 
Q 42 -20.796875 29.203125 -20.796875 
Q 24.46875 -20.796875 20.265625 -20.09375 
Q 16.0625 -19.390625 12.109375 -17.921875 
L 12.109375 -9.1875 
Q 16.0625 -11.328125 19.921875 -12.34375 
Q 23.78125 -13.375 27.78125 -13.375 
Q 36.625 -13.375 41.015625 -8.765625 
Q 45.40625 -4.15625 45.40625 5.171875 
L 45.40625 9.625 
Q 42.625 4.78125 38.28125 2.390625 
Q 33.9375 0 27.875 0 
Q 17.828125 0 11.671875 7.65625 
Q 5.515625 15.328125 5.515625 27.984375 
Q 5.515625 40.671875 11.671875 48.328125 
Q 17.828125 56 27.875 56 
Q 33.9375 56 38.28125 53.609375 
Q 42.625 51.21875 45.40625 46.390625 
L 45.40625 54.6875 
L 54.390625 54.6875 
z
" id="DejaVuSans-67"/>
      <path d="M 54.890625 33.015625 
L 54.890625 0 
L 45.90625 0 
L 45.90625 32.71875 
Q 45.90625 40.484375 42.875 44.328125 
Q 39.84375 48.1875 33.796875 48.1875 
Q 26.515625 48.1875 22.3125 43.546875 
Q 18.109375 38.921875 18.109375 30.90625 
L 18.109375 0 
L 9.078125 0 
L 9.078125 54.6875 
L 18.109375 54.6875 
L 18.109375 46.1875 
Q 21.34375 51.125 25.703125 53.5625 
Q 30.078125 56 35.796875 56 
Q 45.21875 56 50.046875 50.171875 
Q 54.890625 44.34375 54.890625 33.015625 
z
" id="DejaVuSans-6e"/>
      <path d="M 34.28125 27.484375 
Q 23.390625 27.484375 19.1875 25 
Q 14.984375 22.515625 14.984375 16.5 
Q 14.984375 11.71875 18.140625 8.90625 
Q 21.296875 6.109375 26.703125 6.109375 
Q 34.1875 6.109375 38.703125 11.40625 
Q 43.21875 16.703125 43.21875 25.484375 
L 43.21875 27.484375 
z
M 52.203125 31.203125 
L 52.203125 0 
L 43.21875 0 
L 43.21875 8.296875 
Q 40.140625 3.328125 35.546875 0.953125 
Q 30.953125 -1.421875 24.3125 -1.421875 
Q 15.921875 -1.421875 10.953125 3.296875 
Q 6 8.015625 6 15.921875 
Q 6 25.140625 12.171875 29.828125 
Q 18.359375 34.515625 30.609375 34.515625 
L 43.21875 34.515625 
L 43.21875 35.40625 
Q 43.21875 41.609375 39.140625 45 
Q 35.0625 48.390625 27.6875 48.390625 
Q 23 48.390625 18.546875 47.265625 
Q 14.109375 46.140625 10.015625 43.890625 
L 10.015625 52.203125 
Q 14.9375 54.109375 19.578125 55.046875 
Q 24.21875 56 28.609375 56 
Q 40.484375 56 46.34375 49.84375 
Q 52.203125 43.703125 52.203125 31.203125 
z
" id="DejaVuSans-61"/>
      <path d="M 9.421875 75.984375 
L 18.40625 75.984375 
L 18.40625 0 
L 9.421875 0 
z
" id="DejaVuSans-6c"/>
     </defs>
     <g transform="translate(724.754688 85.718437)scale(0.1 -0.1)">
      <use xlink:href="#DejaVuSans-4f"/>
      <use x="78.710938" xlink:href="#DejaVuSans-72"/>
      <use x="119.824219" xlink:href="#DejaVuSans-69"/>
      <use x="147.607422" xlink:href="#DejaVuSans-67"/>
      <use x="211.083984" xlink:href="#DejaVuSans-69"/>
      <use x="238.867188" xlink:href="#DejaVuSans-6e"/>
      <use x="302.246094" xlink:href="#DejaVuSans-61"/>
      <use x="363.525391" xlink:href="#DejaVuSans-6c"/>
     </g>
    </g>
    <g id="line2d_42">
     <path d="M 696.754688 96.896563 
L 716.754688 96.896563 
" style="fill:none;stroke:#ff7f0e;stroke-linecap:square;stroke-width:1.5;"/>
    </g>
    <g id="line2d_43"/>
    <g id="text_14">
     <!-- Sampled -->
     <defs>
      <path d="M 53.515625 70.515625 
L 53.515625 60.890625 
Q 47.90625 63.578125 42.921875 64.890625 
Q 37.9375 66.21875 33.296875 66.21875 
Q 25.25 66.21875 20.875 63.09375 
Q 16.5 59.96875 16.5 54.203125 
Q 16.5 49.359375 19.40625 46.890625 
Q 22.3125 44.4375 30.421875 42.921875 
L 36.375 41.703125 
Q 47.40625 39.59375 52.65625 34.296875 
Q 57.90625 29 57.90625 20.125 
Q 57.90625 9.515625 50.796875 4.046875 
Q 43.703125 -1.421875 29.984375 -1.421875 
Q 24.8125 -1.421875 18.96875 -0.25 
Q 13.140625 0.921875 6.890625 3.21875 
L 6.890625 13.375 
Q 12.890625 10.015625 18.65625 8.296875 
Q 24.421875 6.59375 29.984375 6.59375 
Q 38.421875 6.59375 43.015625 9.90625 
Q 47.609375 13.234375 47.609375 19.390625 
Q 47.609375 24.75 44.3125 27.78125 
Q 41.015625 30.8125 33.5 32.328125 
L 27.484375 33.5 
Q 16.453125 35.6875 11.515625 40.375 
Q 6.59375 45.0625 6.59375 53.421875 
Q 6.59375 63.09375 13.40625 68.65625 
Q 20.21875 74.21875 32.171875 74.21875 
Q 37.3125 74.21875 42.625 73.28125 
Q 47.953125 72.359375 53.515625 70.515625 
z
" id="DejaVuSans-53"/>
      <path d="M 52 44.1875 
Q 55.375 50.25 60.0625 53.125 
Q 64.75 56 71.09375 56 
Q 79.640625 56 84.28125 50.015625 
Q 88.921875 44.046875 88.921875 33.015625 
L 88.921875 0 
L 79.890625 0 
L 79.890625 32.71875 
Q 79.890625 40.578125 77.09375 44.375 
Q 74.3125 48.1875 68.609375 48.1875 
Q 61.625 48.1875 57.5625 43.546875 
Q 53.515625 38.921875 53.515625 30.90625 
L 53.515625 0 
L 44.484375 0 
L 44.484375 32.71875 
Q 44.484375 40.625 41.703125 44.40625 
Q 38.921875 48.1875 33.109375 48.1875 
Q 26.21875 48.1875 22.15625 43.53125 
Q 18.109375 38.875 18.109375 30.90625 
L 18.109375 0 
L 9.078125 0 
L 9.078125 54.6875 
L 18.109375 54.6875 
L 18.109375 46.1875 
Q 21.1875 51.21875 25.484375 53.609375 
Q 29.78125 56 35.6875 56 
Q 41.65625 56 45.828125 52.96875 
Q 50 49.953125 52 44.1875 
z
" id="DejaVuSans-6d"/>
      <path d="M 18.109375 8.203125 
L 18.109375 -20.796875 
L 9.078125 -20.796875 
L 9.078125 54.6875 
L 18.109375 54.6875 
L 18.109375 46.390625 
Q 20.953125 51.265625 25.265625 53.625 
Q 29.59375 56 35.59375 56 
Q 45.5625 56 51.78125 48.09375 
Q 58.015625 40.1875 58.015625 27.296875 
Q 58.015625 14.40625 51.78125 6.484375 
Q 45.5625 -1.421875 35.59375 -1.421875 
Q 29.59375 -1.421875 25.265625 0.953125 
Q 20.953125 3.328125 18.109375 8.203125 
z
M 48.6875 27.296875 
Q 48.6875 37.203125 44.609375 42.84375 
Q 40.53125 48.484375 33.40625 48.484375 
Q 26.265625 48.484375 22.1875 42.84375 
Q 18.109375 37.203125 18.109375 27.296875 
Q 18.109375 17.390625 22.1875 11.75 
Q 26.265625 6.109375 33.40625 6.109375 
Q 40.53125 6.109375 44.609375 11.75 
Q 48.6875 17.390625 48.6875 27.296875 
z
" id="DejaVuSans-70"/>
      <path d="M 56.203125 29.59375 
L 56.203125 25.203125 
L 14.890625 25.203125 
Q 15.484375 15.921875 20.484375 11.0625 
Q 25.484375 6.203125 34.421875 6.203125 
Q 39.59375 6.203125 44.453125 7.46875 
Q 49.3125 8.734375 54.109375 11.28125 
L 54.109375 2.78125 
Q 49.265625 0.734375 44.1875 -0.34375 
Q 39.109375 -1.421875 33.890625 -1.421875 
Q 20.796875 -1.421875 13.15625 6.1875 
Q 5.515625 13.8125 5.515625 26.8125 
Q 5.515625 40.234375 12.765625 48.109375 
Q 20.015625 56 32.328125 56 
Q 43.359375 56 49.78125 48.890625 
Q 56.203125 41.796875 56.203125 29.59375 
z
M 47.21875 32.234375 
Q 47.125 39.59375 43.09375 43.984375 
Q 39.0625 48.390625 32.421875 48.390625 
Q 24.90625 48.390625 20.390625 44.140625 
Q 15.875 39.890625 15.1875 32.171875 
z
" id="DejaVuSans-65"/>
      <path d="M 45.40625 46.390625 
L 45.40625 75.984375 
L 54.390625 75.984375 
L 54.390625 0 
L 45.40625 0 
L 45.40625 8.203125 
Q 42.578125 3.328125 38.25 0.953125 
Q 33.9375 -1.421875 27.875 -1.421875 
Q 17.96875 -1.421875 11.734375 6.484375 
Q 5.515625 14.40625 5.515625 27.296875 
Q 5.515625 40.1875 11.734375 48.09375 
Q 17.96875 56 27.875 56 
Q 33.9375 56 38.25 53.625 
Q 42.578125 51.265625 45.40625 46.390625 
z
M 14.796875 27.296875 
Q 14.796875 17.390625 18.875 11.75 
Q 22.953125 6.109375 30.078125 6.109375 
Q 37.203125 6.109375 41.296875 11.75 
Q 45.40625 17.390625 45.40625 27.296875 
Q 45.40625 37.203125 41.296875 42.84375 
Q 37.203125 48.484375 30.078125 48.484375 
Q 22.953125 48.484375 18.875 42.84375 
Q 14.796875 37.203125 14.796875 27.296875 
z
" id="DejaVuSans-64"/>
     </defs>
     <g transform="translate(724.754688 100.396563)scale(0.1 -0.1)">
      <use xlink:href="#DejaVuSans-53"/>
      <use x="63.476562" xlink:href="#DejaVuSans-61"/>
      <use x="124.755859" xlink:href="#DejaVuSans-6d"/>
      <use x="222.167969" xlink:href="#DejaVuSans-70"/>
      <use x="285.644531" xlink:href="#DejaVuSans-6c"/>
      <use x="313.427734" xlink:href="#DejaVuSans-65"/>
      <use x="374.951172" xlink:href="#DejaVuSans-64"/>
     </g>
    </g>
   </g>
  </g>
 </g>
 <defs>
  <clipPath id="pfde587cf3f">
   <rect height="434.88" width="669.6" x="108" y="69.12"/>
  </clipPath>
 </defs>
</svg>
